ISO-10303-21;
HEADER;
FILE_DESCRIPTION(('FreeCAD Model'),'2;1');
FILE_NAME('Open CASCADE Shape Model','2026-09-01T13:19:46',('FreeCAD'),(
    'FreeCAD'),'Open CASCADE STEP processor 7.9','FreeCAD','Unknown');
FILE_SCHEMA(('AUTOMOTIVE_DESIGN { 1 0 10303 214 1 1 1 1 }'));
ENDSEC;
DATA;
#1 = APPLICATION_PROTOCOL_DEFINITION('international standard',
  'automotive_design',2000,#2);
#2 = APPLICATION_CONTEXT(
  'core data for automotive mechanical design processes');
#3 = SHAPE_DEFINITION_REPRESENTATION(#4,#10);
#4 = PRODUCT_DEFINITION_SHAPE('','',#5);
#5 = PRODUCT_DEFINITION('design','',#6,#9);
#6 = PRODUCT_DEFINITION_FORMATION('','',#7);
#7 = PRODUCT('Open CASCADE STEP translator 7.9 2',
  'Open CASCADE STEP translator 7.9 2','',(#8));
#8 = PRODUCT_CONTEXT('',#2,'mechanical');
#9 = PRODUCT_DEFINITION_CONTEXT('part definition',#2,'design');
#10 = ADVANCED_BREP_SHAPE_REPRESENTATION('',(#11,#15),#1889);
#11 = AXIS2_PLACEMENT_3D('',#12,#13,#14);
#12 = CARTESIAN_POINT('',(0.,0.,0.));
#13 = DIRECTION('',(0.,0.,1.));
#14 = DIRECTION('',(1.,0.,-0.));
#15 = MANIFOLD_SOLID_BREP('',#16);
#16 = CLOSED_SHELL('',(#17,#57,#88,#112,#136,#153,#200,#242,#282,#308,
    #333,#364,#389,#445,#463,#510,#559,#584,#644,#661,#692,#717,#741,
    #758,#789,#824,#861,#893,#911,#944,#969,#994,#1027,#1052,#1077,#1176
    ,#1200,#1292,#1391,#1415,#1507,#1517,#1534,#1551,#1568,#1585,#1602,
    #1619,#1636,#1653,#1670,#1687,#1704,#1721,#1738,#1755,#1772,#1789,
    #1806,#1823,#1840,#1857,#1873));
#17 = ADVANCED_FACE('',(#18),#52,.T.);
#18 = FACE_BOUND('',#19,.T.);
#19 = EDGE_LOOP('',(#20,#30,#38,#46));
#20 = ORIENTED_EDGE('',*,*,#21,.T.);
#21 = EDGE_CURVE('',#22,#24,#26,.T.);
#22 = VERTEX_POINT('',#23);
#23 = CARTESIAN_POINT('',(0.899195290351,-1.354582572231,1.874879337226)
  );
#24 = VERTEX_POINT('',#25);
#25 = CARTESIAN_POINT('',(0.899195290351,1.35458257224,1.874879337226));
#26 = LINE('',#27,#28);
#27 = CARTESIAN_POINT('',(0.899195290351,-1.35458257223,1.874879337226)
  );
#28 = VECTOR('',#29,1.);
#29 = DIRECTION('',(0.,1.,0.));
#30 = ORIENTED_EDGE('',*,*,#31,.T.);
#31 = EDGE_CURVE('',#24,#32,#34,.T.);
#32 = VERTEX_POINT('',#33);
#33 = CARTESIAN_POINT('',(-0.899195290349,1.35458257224,1.874879337226)
  );
#34 = LINE('',#35,#36);
#35 = CARTESIAN_POINT('',(0.899195290351,1.35458257224,1.874879337226));
#36 = VECTOR('',#37,1.);
#37 = DIRECTION('',(-1.,0.,0.));
#38 = ORIENTED_EDGE('',*,*,#39,.T.);
#39 = EDGE_CURVE('',#32,#40,#42,.T.);
#40 = VERTEX_POINT('',#41);
#41 = CARTESIAN_POINT('',(-0.899195290349,-1.354582572237,1.874879337226
    ));
#42 = LINE('',#43,#44);
#43 = CARTESIAN_POINT('',(-0.899195290349,-1.35458257223,1.874879337226)
  );
#44 = VECTOR('',#45,1.);
#45 = DIRECTION('',(0.,-1.,0.));
#46 = ORIENTED_EDGE('',*,*,#47,.T.);
#47 = EDGE_CURVE('',#40,#22,#48,.T.);
#48 = LINE('',#49,#50);
#49 = CARTESIAN_POINT('',(0.899195290351,-1.354582572236,1.874879337226)
  );
#50 = VECTOR('',#51,1.);
#51 = DIRECTION('',(1.,0.,0.));
#52 = PLANE('',#53);
#53 = AXIS2_PLACEMENT_3D('',#54,#55,#56);
#54 = CARTESIAN_POINT('',(0.899195290351,-1.35458257223,1.874879337226)
  );
#55 = DIRECTION('',(0.,0.,1.));
#56 = DIRECTION('',(1.,0.,0.));
#57 = ADVANCED_FACE('',(#58),#83,.T.);
#58 = FACE_BOUND('',#59,.T.);
#59 = EDGE_LOOP('',(#60,#68,#69,#77));
#60 = ORIENTED_EDGE('',*,*,#61,.T.);
#61 = EDGE_CURVE('',#62,#32,#64,.T.);
#62 = VERTEX_POINT('',#63);
#63 = CARTESIAN_POINT('',(-0.899195290349,1.354582572239,1.724886837226)
  );
#64 = LINE('',#65,#66);
#65 = CARTESIAN_POINT('',(-0.899195290349,1.35458257224,1.724886837226)
  );
#66 = VECTOR('',#67,1.);
#67 = DIRECTION('',(0.,0.,1.));
#68 = ORIENTED_EDGE('',*,*,#31,.F.);
#69 = ORIENTED_EDGE('',*,*,#70,.T.);
#70 = EDGE_CURVE('',#24,#71,#73,.T.);
#71 = VERTEX_POINT('',#72);
#72 = CARTESIAN_POINT('',(0.899195290351,1.354582572237,1.724886837226)
  );
#73 = LINE('',#74,#75);
#74 = CARTESIAN_POINT('',(0.899195290351,1.35458257224,1.724886837226));
#75 = VECTOR('',#76,1.);
#76 = DIRECTION('',(0.,0.,-1.));
#77 = ORIENTED_EDGE('',*,*,#78,.T.);
#78 = EDGE_CURVE('',#71,#62,#79,.T.);
#79 = LINE('',#80,#81);
#80 = CARTESIAN_POINT('',(-0.899195290349,1.35458257224,1.724886837226)
  );
#81 = VECTOR('',#82,1.);
#82 = DIRECTION('',(-1.,0.,0.));
#83 = PLANE('',#84);
#84 = AXIS2_PLACEMENT_3D('',#85,#86,#87);
#85 = CARTESIAN_POINT('',(-0.899195290349,1.35458257224,1.724886837226)
  );
#86 = DIRECTION('',(0.,1.,0.));
#87 = DIRECTION('',(0.,0.,1.));
#88 = ADVANCED_FACE('',(#89),#107,.T.);
#89 = FACE_BOUND('',#90,.T.);
#90 = EDGE_LOOP('',(#91,#99,#100,#101));
#91 = ORIENTED_EDGE('',*,*,#92,.T.);
#92 = EDGE_CURVE('',#93,#71,#95,.T.);
#93 = VERTEX_POINT('',#94);
#94 = CARTESIAN_POINT('',(0.899195290351,-1.354582572238,1.724886837227)
  );
#95 = LINE('',#96,#97);
#96 = CARTESIAN_POINT('',(0.899195290351,-1.35458257223,1.724886837227)
  );
#97 = VECTOR('',#98,1.);
#98 = DIRECTION('',(0.,1.,0.));
#99 = ORIENTED_EDGE('',*,*,#70,.F.);
#100 = ORIENTED_EDGE('',*,*,#21,.F.);
#101 = ORIENTED_EDGE('',*,*,#102,.T.);
#102 = EDGE_CURVE('',#22,#93,#103,.T.);
#103 = LINE('',#104,#105);
#104 = CARTESIAN_POINT('',(0.899195290351,-1.35458257223,1.724886837226)
  );
#105 = VECTOR('',#106,1.);
#106 = DIRECTION('',(0.,0.,-1.));
#107 = PLANE('',#108);
#108 = AXIS2_PLACEMENT_3D('',#109,#110,#111);
#109 = CARTESIAN_POINT('',(0.899195290351,-1.35458257223,1.724886837226)
  );
#110 = DIRECTION('',(1.,0.,0.));
#111 = DIRECTION('',(0.,0.,-1.));
#112 = ADVANCED_FACE('',(#113),#131,.T.);
#113 = FACE_BOUND('',#114,.T.);
#114 = EDGE_LOOP('',(#115,#116,#124,#130));
#115 = ORIENTED_EDGE('',*,*,#47,.F.);
#116 = ORIENTED_EDGE('',*,*,#117,.T.);
#117 = EDGE_CURVE('',#40,#118,#120,.T.);
#118 = VERTEX_POINT('',#119);
#119 = CARTESIAN_POINT('',(-0.899195290349,-1.354582572239,
    1.724886837226));
#120 = LINE('',#121,#122);
#121 = CARTESIAN_POINT('',(-0.899195290349,-1.354582572234,
    1.874879337226));
#122 = VECTOR('',#123,1.);
#123 = DIRECTION('',(4.540302498546E-25,-2.009503674571E-13,-1.));
#124 = ORIENTED_EDGE('',*,*,#125,.T.);
#125 = EDGE_CURVE('',#118,#93,#126,.T.);
#126 = LINE('',#127,#128);
#127 = CARTESIAN_POINT('',(0.899195290351,-1.35458257223,1.724886837226)
  );
#128 = VECTOR('',#129,1.);
#129 = DIRECTION('',(1.,2.259414877415E-12,0.));
#130 = ORIENTED_EDGE('',*,*,#102,.F.);
#131 = PLANE('',#132);
#132 = AXIS2_PLACEMENT_3D('',#133,#134,#135);
#133 = CARTESIAN_POINT('',(0.899195290351,-1.35458257223,1.874879337226)
  );
#134 = DIRECTION('',(2.259414877415E-12,-1.,2.009503674571E-13));
#135 = DIRECTION('',(1.,2.259414877415E-12,0.));
#136 = ADVANCED_FACE('',(#137),#148,.T.);
#137 = FACE_BOUND('',#138,.T.);
#138 = EDGE_LOOP('',(#139,#145,#146,#147));
#139 = ORIENTED_EDGE('',*,*,#140,.T.);
#140 = EDGE_CURVE('',#62,#118,#141,.T.);
#141 = LINE('',#142,#143);
#142 = CARTESIAN_POINT('',(-0.899195290349,1.35458257224,1.724886837226)
  );
#143 = VECTOR('',#144,1.);
#144 = DIRECTION('',(0.,-1.,0.));
#145 = ORIENTED_EDGE('',*,*,#117,.F.);
#146 = ORIENTED_EDGE('',*,*,#39,.F.);
#147 = ORIENTED_EDGE('',*,*,#61,.F.);
#148 = PLANE('',#149);
#149 = AXIS2_PLACEMENT_3D('',#150,#151,#152);
#150 = CARTESIAN_POINT('',(-0.899195290349,1.35458257224,1.724886837226)
  );
#151 = DIRECTION('',(-1.,0.,0.));
#152 = DIRECTION('',(0.,0.,1.));
#153 = ADVANCED_FACE('',(#154),#195,.T.);
#154 = FACE_BOUND('',#155,.T.);
#155 = EDGE_LOOP('',(#156,#157,#165,#173,#181,#189));
#156 = ORIENTED_EDGE('',*,*,#78,.F.);
#157 = ORIENTED_EDGE('',*,*,#158,.T.);
#158 = EDGE_CURVE('',#71,#159,#161,.T.);
#159 = VERTEX_POINT('',#160);
#160 = CARTESIAN_POINT('',(1.500037500001,1.354582572237,1.72488683723)
  );
#161 = LINE('',#162,#163);
#162 = CARTESIAN_POINT('',(-1.5000375,1.354582572237,1.724886837226));
#163 = VECTOR('',#164,1.);
#164 = DIRECTION('',(1.,1.639284341175E-14,1.146299278469E-15));
#165 = ORIENTED_EDGE('',*,*,#166,.T.);
#166 = EDGE_CURVE('',#159,#167,#169,.T.);
#167 = VERTEX_POINT('',#168);
#168 = CARTESIAN_POINT('',(1.500037500001,1.400035000001,1.074886837226)
  );
#169 = LINE('',#170,#171);
#170 = CARTESIAN_POINT('',(1.500037500001,1.400035,1.074886837226));
#171 = VECTOR('',#172,1.);
#172 = DIRECTION('',(0.,6.975647374387E-02,-0.99756405026));
#173 = ORIENTED_EDGE('',*,*,#174,.T.);
#174 = EDGE_CURVE('',#167,#175,#177,.T.);
#175 = VERTEX_POINT('',#176);
#176 = CARTESIAN_POINT('',(-1.5000375,1.400035,1.074886837226));
#177 = LINE('',#178,#179);
#178 = CARTESIAN_POINT('',(-1.5000375,1.400035,1.074886837226));
#179 = VECTOR('',#180,1.);
#180 = DIRECTION('',(-1.,-1.639284341175E-14,-1.146299278469E-15));
#181 = ORIENTED_EDGE('',*,*,#182,.T.);
#182 = EDGE_CURVE('',#175,#183,#185,.T.);
#183 = VERTEX_POINT('',#184);
#184 = CARTESIAN_POINT('',(-1.5000375,1.354582572237,1.72488683723));
#185 = LINE('',#186,#187);
#186 = CARTESIAN_POINT('',(-1.5000375,1.400035,1.074886837226));
#187 = VECTOR('',#188,1.);
#188 = DIRECTION('',(0.,-6.975647374387E-02,0.99756405026));
#189 = ORIENTED_EDGE('',*,*,#190,.T.);
#190 = EDGE_CURVE('',#183,#62,#191,.T.);
#191 = LINE('',#192,#193);
#192 = CARTESIAN_POINT('',(-1.5000375,1.354582572237,1.724886837226));
#193 = VECTOR('',#194,1.);
#194 = DIRECTION('',(1.,1.639284341175E-14,1.146299278469E-15));
#195 = PLANE('',#196);
#196 = AXIS2_PLACEMENT_3D('',#197,#198,#199);
#197 = CARTESIAN_POINT('',(-1.5000375,1.400035,1.074886837226));
#198 = DIRECTION('',(-1.643287306462E-14,0.99756405026,
    6.975647374387E-02));
#199 = DIRECTION('',(0.,-6.975647374387E-02,0.99756405026));
#200 = ADVANCED_FACE('',(#201),#237,.T.);
#201 = FACE_BOUND('',#202,.T.);
#202 = EDGE_LOOP('',(#203,#212,#213,#214,#222,#231));
#203 = ORIENTED_EDGE('',*,*,#204,.T.);
#204 = EDGE_CURVE('',#205,#159,#207,.T.);
#205 = VERTEX_POINT('',#206);
#206 = CARTESIAN_POINT('',(1.55458757224,1.3000325,1.724886837234));
#207 = CIRCLE('',#208,5.455007223437E-02);
#208 = AXIS2_PLACEMENT_3D('',#209,#210,#211);
#209 = CARTESIAN_POINT('',(1.5000375,1.3000325,1.724886837234));
#210 = DIRECTION('',(3.719125313175E-15,1.987535722691E-15,1.));
#211 = DIRECTION('',(-1.,-5.087020813819E-31,3.719125313175E-15));
#212 = ORIENTED_EDGE('',*,*,#158,.F.);
#213 = ORIENTED_EDGE('',*,*,#92,.F.);
#214 = ORIENTED_EDGE('',*,*,#215,.T.);
#215 = EDGE_CURVE('',#93,#216,#218,.T.);
#216 = VERTEX_POINT('',#217);
#217 = CARTESIAN_POINT('',(1.5000375,-1.354582572239,1.72488683723));
#218 = LINE('',#219,#220);
#219 = CARTESIAN_POINT('',(0.899195290351,-1.35458257224,1.724886837226)
  );
#220 = VECTOR('',#221,1.);
#221 = DIRECTION('',(1.,0.,0.));
#222 = ORIENTED_EDGE('',*,*,#223,.T.);
#223 = EDGE_CURVE('',#216,#224,#226,.T.);
#224 = VERTEX_POINT('',#225);
#225 = CARTESIAN_POINT('',(1.554587572237,-1.3000325,1.72488683723));
#226 = CIRCLE('',#227,5.455007223545E-02);
#227 = AXIS2_PLACEMENT_3D('',#228,#229,#230);
#228 = CARTESIAN_POINT('',(1.500037500001,-1.3000325,1.724886837234));
#229 = DIRECTION('',(0.,-0.,1.));
#230 = DIRECTION('',(-1.,0.,0.));
#231 = ORIENTED_EDGE('',*,*,#232,.T.);
#232 = EDGE_CURVE('',#224,#205,#233,.T.);
#233 = LINE('',#234,#235);
#234 = CARTESIAN_POINT('',(1.554587572237,-1.35458257224,1.724886837226)
  );
#235 = VECTOR('',#236,1.);
#236 = DIRECTION('',(0.,1.,0.));
#237 = PLANE('',#238);
#238 = AXIS2_PLACEMENT_3D('',#239,#240,#241);
#239 = CARTESIAN_POINT('',(0.899195290351,-1.35458257224,1.724886837226)
  );
#240 = DIRECTION('',(0.,0.,1.));
#241 = DIRECTION('',(1.,0.,0.));
#242 = ADVANCED_FACE('',(#243),#277,.T.);
#243 = FACE_BOUND('',#244,.T.);
#244 = EDGE_LOOP('',(#245,#253,#254,#255,#263,#271));
#245 = ORIENTED_EDGE('',*,*,#246,.T.);
#246 = EDGE_CURVE('',#247,#216,#249,.T.);
#247 = VERTEX_POINT('',#248);
#248 = CARTESIAN_POINT('',(1.5000375,-1.400035000001,1.074886837226));
#249 = LINE('',#250,#251);
#250 = CARTESIAN_POINT('',(1.5000375,-1.35458257224,1.724886837227));
#251 = VECTOR('',#252,1.);
#252 = DIRECTION('',(0.,6.975647374382E-02,0.99756405026));
#253 = ORIENTED_EDGE('',*,*,#215,.F.);
#254 = ORIENTED_EDGE('',*,*,#125,.F.);
#255 = ORIENTED_EDGE('',*,*,#256,.T.);
#256 = EDGE_CURVE('',#118,#257,#259,.T.);
#257 = VERTEX_POINT('',#258);
#258 = CARTESIAN_POINT('',(-1.554587572236,-1.354582572239,
    1.724886837226));
#259 = LINE('',#260,#261);
#260 = CARTESIAN_POINT('',(-1.60004,-1.35458257224,1.724886837226));
#261 = VECTOR('',#262,1.);
#262 = DIRECTION('',(-1.,2.466559887229E-14,-1.724786693809E-15));
#263 = ORIENTED_EDGE('',*,*,#264,.F.);
#264 = EDGE_CURVE('',#265,#257,#267,.T.);
#265 = VERTEX_POINT('',#266);
#266 = CARTESIAN_POINT('',(-1.60004,-1.400035000001,1.074886837226));
#267 = LINE('',#268,#269);
#268 = CARTESIAN_POINT('',(-1.60004,-1.400035000001,1.074886837226));
#269 = VECTOR('',#270,1.);
#270 = DIRECTION('',(6.958737431668E-02,6.958737431332E-02,
    0.995145815784));
#271 = ORIENTED_EDGE('',*,*,#272,.T.);
#272 = EDGE_CURVE('',#265,#247,#273,.T.);
#273 = LINE('',#274,#275);
#274 = CARTESIAN_POINT('',(-1.60004,-1.400035000003,1.074886837226));
#275 = VECTOR('',#276,1.);
#276 = DIRECTION('',(1.,-2.466559887229E-14,1.724786693809E-15));
#277 = PLANE('',#278);
#278 = AXIS2_PLACEMENT_3D('',#279,#280,#281);
#279 = CARTESIAN_POINT('',(-1.60004,-1.35458257224,1.724886837227));
#280 = DIRECTION('',(-2.472582975085E-14,-0.99756405026,
    6.975647374382E-02));
#281 = DIRECTION('',(0.,-6.975647374382E-02,-0.99756405026));
#282 = ADVANCED_FACE('',(#283),#303,.T.);
#283 = FACE_BOUND('',#284,.T.);
#284 = EDGE_LOOP('',(#285,#293,#294,#295,#296));
#285 = ORIENTED_EDGE('',*,*,#286,.T.);
#286 = EDGE_CURVE('',#287,#257,#289,.T.);
#287 = VERTEX_POINT('',#288);
#288 = CARTESIAN_POINT('',(-1.554587572235,1.3000325,1.724886837232));
#289 = LINE('',#290,#291);
#290 = CARTESIAN_POINT('',(-1.554587572236,-1.35458257224,1.724886837226
    ));
#291 = VECTOR('',#292,1.);
#292 = DIRECTION('',(0.,-1.,0.));
#293 = ORIENTED_EDGE('',*,*,#256,.F.);
#294 = ORIENTED_EDGE('',*,*,#140,.F.);
#295 = ORIENTED_EDGE('',*,*,#190,.F.);
#296 = ORIENTED_EDGE('',*,*,#297,.T.);
#297 = EDGE_CURVE('',#183,#287,#298,.T.);
#298 = CIRCLE('',#299,5.455007223357E-02);
#299 = AXIS2_PLACEMENT_3D('',#300,#301,#302);
#300 = CARTESIAN_POINT('',(-1.500037499999,1.3000325,1.724886837234));
#301 = DIRECTION('',(0.,-0.,1.));
#302 = DIRECTION('',(-1.,0.,0.));
#303 = PLANE('',#304);
#304 = AXIS2_PLACEMENT_3D('',#305,#306,#307);
#305 = CARTESIAN_POINT('',(-1.554587572237,-1.35458257224,1.724886837226
    ));
#306 = DIRECTION('',(0.,0.,1.));
#307 = DIRECTION('',(1.,0.,0.));
#308 = ADVANCED_FACE('',(#309),#328,.T.);
#309 = FACE_BOUND('',#310,.T.);
#310 = EDGE_LOOP('',(#311,#312,#313,#322));
#311 = ORIENTED_EDGE('',*,*,#297,.F.);
#312 = ORIENTED_EDGE('',*,*,#182,.F.);
#313 = ORIENTED_EDGE('',*,*,#314,.T.);
#314 = EDGE_CURVE('',#175,#315,#317,.T.);
#315 = VERTEX_POINT('',#316);
#316 = CARTESIAN_POINT('',(-1.600039999998,1.3000325,1.07488683724));
#317 = CIRCLE('',#318,0.100002499996);
#318 = AXIS2_PLACEMENT_3D('',#319,#320,#321);
#319 = CARTESIAN_POINT('',(-1.500037499999,1.3000325,1.074886837226));
#320 = DIRECTION('',(0.,0.,1.));
#321 = DIRECTION('',(-1.,0.,0.));
#322 = ORIENTED_EDGE('',*,*,#323,.T.);
#323 = EDGE_CURVE('',#315,#287,#324,.T.);
#324 = LINE('',#325,#326);
#325 = CARTESIAN_POINT('',(-3.489507919729E+04,1.3000325,
    -4.989989251132E+05));
#326 = VECTOR('',#327,1.);
#327 = DIRECTION('',(6.975647373911E-02,0.,0.99756405026));
#328 = CONICAL_SURFACE('',#329,0.100002499996,6.981317008446E-02);
#329 = AXIS2_PLACEMENT_3D('',#330,#331,#332);
#330 = CARTESIAN_POINT('',(-1.500037499999,1.3000325,1.074886837283));
#331 = DIRECTION('',(0.,0.,-1.));
#332 = DIRECTION('',(-1.,0.,0.));
#333 = ADVANCED_FACE('',(#334),#359,.T.);
#334 = FACE_BOUND('',#335,.T.);
#335 = EDGE_LOOP('',(#336,#344,#345,#353));
#336 = ORIENTED_EDGE('',*,*,#337,.T.);
#337 = EDGE_CURVE('',#338,#175,#340,.T.);
#338 = VERTEX_POINT('',#339);
#339 = CARTESIAN_POINT('',(-1.500037499999,1.34059720985,0.224886837219)
  );
#340 = LINE('',#341,#342);
#341 = CARTESIAN_POINT('',(-1.500037499999,1.34059720985,0.224886837226)
  );
#342 = VECTOR('',#343,1.);
#343 = DIRECTION('',(0.,6.975647374389E-02,0.99756405026));
#344 = ORIENTED_EDGE('',*,*,#174,.F.);
#345 = ORIENTED_EDGE('',*,*,#346,.T.);
#346 = EDGE_CURVE('',#167,#347,#349,.T.);
#347 = VERTEX_POINT('',#348);
#348 = CARTESIAN_POINT('',(1.500037500001,1.34059720985,0.224886837219)
  );
#349 = LINE('',#350,#351);
#350 = CARTESIAN_POINT('',(1.500037500001,1.34059720985,0.224886837226)
  );
#351 = VECTOR('',#352,1.);
#352 = DIRECTION('',(-0.,-6.975647374389E-02,-0.99756405026));
#353 = ORIENTED_EDGE('',*,*,#354,.T.);
#354 = EDGE_CURVE('',#347,#338,#355,.T.);
#355 = LINE('',#356,#357);
#356 = CARTESIAN_POINT('',(-1.5000375,1.34059720985,0.224886837226));
#357 = VECTOR('',#358,1.);
#358 = DIRECTION('',(-1.,9.128188017917E-15,-6.383050869118E-16));
#359 = PLANE('',#360);
#360 = AXIS2_PLACEMENT_3D('',#361,#362,#363);
#361 = CARTESIAN_POINT('',(-1.5000375,1.34059720985,0.224886837226));
#362 = DIRECTION('',(9.150478122722E-15,0.99756405026,
    -6.975647374389E-02));
#363 = DIRECTION('',(-1.972152263053E-31,6.975647374389E-02,
    0.99756405026));
#364 = ADVANCED_FACE('',(#365),#384,.T.);
#365 = FACE_BOUND('',#366,.T.);
#366 = EDGE_LOOP('',(#367,#368,#376,#383));
#367 = ORIENTED_EDGE('',*,*,#204,.F.);
#368 = ORIENTED_EDGE('',*,*,#369,.T.);
#369 = EDGE_CURVE('',#205,#370,#372,.T.);
#370 = VERTEX_POINT('',#371);
#371 = CARTESIAN_POINT('',(1.60004,1.3000325,1.074886837212));
#372 = LINE('',#373,#374);
#373 = CARTESIAN_POINT('',(3.489507919958E+04,1.300032498021,
    -4.989989251132E+05));
#374 = VECTOR('',#375,1.);
#375 = DIRECTION('',(6.975647374367E-02,-3.95684566676E-15,
    -0.99756405026));
#376 = ORIENTED_EDGE('',*,*,#377,.T.);
#377 = EDGE_CURVE('',#370,#167,#378,.T.);
#378 = CIRCLE('',#379,0.1000025);
#379 = AXIS2_PLACEMENT_3D('',#380,#381,#382);
#380 = CARTESIAN_POINT('',(1.5000375,1.3000325,1.074886837226));
#381 = DIRECTION('',(1.987535722739E-15,1.987535722622E-15,1.));
#382 = DIRECTION('',(-1.,-3.593751059368E-31,1.987535722739E-15));
#383 = ORIENTED_EDGE('',*,*,#166,.F.);
#384 = CONICAL_SURFACE('',#385,0.100002499993,6.981317008446E-02);
#385 = AXIS2_PLACEMENT_3D('',#386,#387,#388);
#386 = CARTESIAN_POINT('',(1.5000375,1.3000325,1.07488683734));
#387 = DIRECTION('',(-3.719125313175E-15,-1.987535722691E-15,-1.));
#388 = DIRECTION('',(-1.,0.,3.719125313175E-15));
#389 = ADVANCED_FACE('',(#390),#440,.T.);
#390 = FACE_BOUND('',#391,.T.);
#391 = EDGE_LOOP('',(#392,#402,#410,#418,#424,#425,#426,#434));
#392 = ORIENTED_EDGE('',*,*,#393,.F.);
#393 = EDGE_CURVE('',#394,#396,#398,.T.);
#394 = VERTEX_POINT('',#395);
#395 = CARTESIAN_POINT('',(1.600040000001,-0.70863674881,1.074886837227)
  );
#396 = VERTEX_POINT('',#397);
#397 = CARTESIAN_POINT('',(1.600040000001,-1.074999375,1.074886837227));
#398 = LINE('',#399,#400);
#399 = CARTESIAN_POINT('',(1.600040000002,-1.074999375,1.074886837227));
#400 = VECTOR('',#401,1.);
#401 = DIRECTION('',(0.,-1.,0.));
#402 = ORIENTED_EDGE('',*,*,#403,.T.);
#403 = EDGE_CURVE('',#394,#404,#406,.T.);
#404 = VERTEX_POINT('',#405);
#405 = CARTESIAN_POINT('',(1.600040000001,0.608634248812,1.074886837227)
  );
#406 = LINE('',#407,#408);
#407 = CARTESIAN_POINT('',(1.600040000001,1.3000325,1.074886837227));
#408 = VECTOR('',#409,1.);
#409 = DIRECTION('',(-1.60169061457E-15,1.,-1.120011183967E-16));
#410 = ORIENTED_EDGE('',*,*,#411,.F.);
#411 = EDGE_CURVE('',#412,#404,#414,.T.);
#412 = VERTEX_POINT('',#413);
#413 = CARTESIAN_POINT('',(1.600040000001,1.125000625,1.074886837227));
#414 = LINE('',#415,#416);
#415 = CARTESIAN_POINT('',(1.600040000001,-1.074999375,1.074886837227));
#416 = VECTOR('',#417,1.);
#417 = DIRECTION('',(0.,-1.,0.));
#418 = ORIENTED_EDGE('',*,*,#419,.F.);
#419 = EDGE_CURVE('',#370,#412,#420,.T.);
#420 = LINE('',#421,#422);
#421 = CARTESIAN_POINT('',(1.600040000001,1.3000325,1.074886837226));
#422 = VECTOR('',#423,1.);
#423 = DIRECTION('',(-5.44044052223E-15,-1.,3.804326612878E-16));
#424 = ORIENTED_EDGE('',*,*,#369,.F.);
#425 = ORIENTED_EDGE('',*,*,#232,.F.);
#426 = ORIENTED_EDGE('',*,*,#427,.T.);
#427 = EDGE_CURVE('',#224,#428,#430,.T.);
#428 = VERTEX_POINT('',#429);
#429 = CARTESIAN_POINT('',(1.600039999996,-1.3000325,1.074886837184));
#430 = LINE('',#431,#432);
#431 = CARTESIAN_POINT('',(1.600040000001,-1.3000325,1.074886837226));
#432 = VECTOR('',#433,1.);
#433 = DIRECTION('',(6.975647374411E-02,0.,-0.99756405026));
#434 = ORIENTED_EDGE('',*,*,#435,.F.);
#435 = EDGE_CURVE('',#396,#428,#436,.T.);
#436 = LINE('',#437,#438);
#437 = CARTESIAN_POINT('',(1.600040000001,1.3000325,1.074886837227));
#438 = VECTOR('',#439,1.);
#439 = DIRECTION('',(-5.44044052223E-15,-1.,3.804326612878E-16));
#440 = PLANE('',#441);
#441 = AXIS2_PLACEMENT_3D('',#442,#443,#444);
#442 = CARTESIAN_POINT('',(1.600040000001,1.3000325,1.074886837226));
#443 = DIRECTION('',(0.99756405026,1.605601779808E-15,6.975647374411E-02
    ));
#444 = DIRECTION('',(6.975647374411E-02,0.,-0.99756405026));
#445 = ADVANCED_FACE('',(#446),#458,.T.);
#446 = FACE_BOUND('',#447,.T.);
#447 = EDGE_LOOP('',(#448,#449,#450,#457));
#448 = ORIENTED_EDGE('',*,*,#223,.F.);
#449 = ORIENTED_EDGE('',*,*,#246,.F.);
#450 = ORIENTED_EDGE('',*,*,#451,.T.);
#451 = EDGE_CURVE('',#247,#428,#452,.T.);
#452 = CIRCLE('',#453,0.100002500001);
#453 = AXIS2_PLACEMENT_3D('',#454,#455,#456);
#454 = CARTESIAN_POINT('',(1.500037500001,-1.3000325,1.074886837226));
#455 = DIRECTION('',(0.,-0.,1.));
#456 = DIRECTION('',(-1.,0.,0.));
#457 = ORIENTED_EDGE('',*,*,#427,.F.);
#458 = CONICAL_SURFACE('',#459,0.100002499986,6.981317008446E-02);
#459 = AXIS2_PLACEMENT_3D('',#460,#461,#462);
#460 = CARTESIAN_POINT('',(1.500037500001,-1.3000325,1.074886837454));
#461 = DIRECTION('',(0.,0.,-1.));
#462 = DIRECTION('',(-1.,0.,0.));
#463 = ADVANCED_FACE('',(#464),#505,.T.);
#464 = FACE_BOUND('',#465,.T.);
#465 = EDGE_LOOP('',(#466,#467,#475,#483,#491,#499));
#466 = ORIENTED_EDGE('',*,*,#272,.F.);
#467 = ORIENTED_EDGE('',*,*,#468,.F.);
#468 = EDGE_CURVE('',#469,#265,#471,.T.);
#469 = VERTEX_POINT('',#470);
#470 = CARTESIAN_POINT('',(-1.540602209848,-1.340597209849,
    0.224886837226));
#471 = LINE('',#472,#473);
#472 = CARTESIAN_POINT('',(-1.540602209848,-1.340597209849,
    0.224886837226));
#473 = VECTOR('',#474,1.);
#474 = DIRECTION('',(-6.958737431664E-02,-6.958737431612E-02,
    0.995145815784));
#475 = ORIENTED_EDGE('',*,*,#476,.T.);
#476 = EDGE_CURVE('',#469,#477,#479,.T.);
#477 = VERTEX_POINT('',#478);
#478 = CARTESIAN_POINT('',(1.075407561199,-1.340597209848,0.224886837226
    ));
#479 = LINE('',#480,#481);
#480 = CARTESIAN_POINT('',(-1.60004,-1.340597209848,0.224886837226));
#481 = VECTOR('',#482,1.);
#482 = DIRECTION('',(1.,1.909880351734E-14,1.335518441898E-15));
#483 = ORIENTED_EDGE('',*,*,#484,.T.);
#484 = EDGE_CURVE('',#477,#485,#487,.T.);
#485 = VERTEX_POINT('',#486);
#486 = CARTESIAN_POINT('',(1.041643908416,-1.354582572608,0.42488684155)
  );
#487 = LINE('',#488,#489);
#488 = CARTESIAN_POINT('',(1.075407561199,-1.340597209848,0.224886837226
    ));
#489 = VECTOR('',#490,1.);
#490 = DIRECTION('',(-0.166068560486,-6.878784992877E-02,0.983712084362)
  );
#491 = ORIENTED_EDGE('',*,*,#492,.T.);
#492 = EDGE_CURVE('',#485,#493,#495,.T.);
#493 = VERTEX_POINT('',#494);
#494 = CARTESIAN_POINT('',(1.5000375,-1.354582572463,0.424886840465));
#495 = LINE('',#496,#497);
#496 = CARTESIAN_POINT('',(-1.60004,-1.35458257269,0.424886843712));
#497 = VECTOR('',#498,1.);
#498 = DIRECTION('',(1.,1.909880351734E-14,1.335518441898E-15));
#499 = ORIENTED_EDGE('',*,*,#500,.T.);
#500 = EDGE_CURVE('',#493,#247,#501,.T.);
#501 = LINE('',#502,#503);
#502 = CARTESIAN_POINT('',(1.5000375,-1.400035,1.074886837226));
#503 = VECTOR('',#504,1.);
#504 = DIRECTION('',(0.,-6.975647374387E-02,0.99756405026));
#505 = PLANE('',#506);
#506 = AXIS2_PLACEMENT_3D('',#507,#508,#509);
#507 = CARTESIAN_POINT('',(-1.60004,-1.400035,1.074886837226));
#508 = DIRECTION('',(1.9145440849E-14,-0.99756405026,-6.975647374387E-02
    ));
#509 = DIRECTION('',(0.,6.975647374387E-02,-0.99756405026));
#510 = ADVANCED_FACE('',(#511),#554,.T.);
#511 = FACE_BOUND('',#512,.T.);
#512 = EDGE_LOOP('',(#513,#523,#531,#539,#545,#546,#547,#548));
#513 = ORIENTED_EDGE('',*,*,#514,.F.);
#514 = EDGE_CURVE('',#515,#517,#519,.T.);
#515 = VERTEX_POINT('',#516);
#516 = CARTESIAN_POINT('',(-1.600039999999,0.608634248812,1.074886837225
    ));
#517 = VERTEX_POINT('',#518);
#518 = CARTESIAN_POINT('',(-1.60004,1.125000625,1.074886837225));
#519 = LINE('',#520,#521);
#520 = CARTESIAN_POINT('',(-1.600039999999,-1.074999375,1.074886837225)
  );
#521 = VECTOR('',#522,1.);
#522 = DIRECTION('',(0.,1.,0.));
#523 = ORIENTED_EDGE('',*,*,#524,.T.);
#524 = EDGE_CURVE('',#515,#525,#527,.T.);
#525 = VERTEX_POINT('',#526);
#526 = CARTESIAN_POINT('',(-1.60004,-0.708636748809,1.074886837226));
#527 = LINE('',#528,#529);
#528 = CARTESIAN_POINT('',(-1.60004,1.3000325,1.074886837225));
#529 = VECTOR('',#530,1.);
#530 = DIRECTION('',(1.063150770591E-15,-1.,-7.434274400274E-17));
#531 = ORIENTED_EDGE('',*,*,#532,.F.);
#532 = EDGE_CURVE('',#533,#525,#535,.T.);
#533 = VERTEX_POINT('',#534);
#534 = CARTESIAN_POINT('',(-1.60004,-1.074999375,1.074886837226));
#535 = LINE('',#536,#537);
#536 = CARTESIAN_POINT('',(-1.60004,-1.074999375,1.074886837225));
#537 = VECTOR('',#538,1.);
#538 = DIRECTION('',(0.,1.,0.));
#539 = ORIENTED_EDGE('',*,*,#540,.F.);
#540 = EDGE_CURVE('',#265,#533,#541,.T.);
#541 = LINE('',#542,#543);
#542 = CARTESIAN_POINT('',(-1.60004,1.3000325,1.074886837226));
#543 = VECTOR('',#544,1.);
#544 = DIRECTION('',(8.012279594042E-16,1.,5.602731684113E-17));
#545 = ORIENTED_EDGE('',*,*,#264,.T.);
#546 = ORIENTED_EDGE('',*,*,#286,.F.);
#547 = ORIENTED_EDGE('',*,*,#323,.F.);
#548 = ORIENTED_EDGE('',*,*,#549,.F.);
#549 = EDGE_CURVE('',#517,#315,#550,.T.);
#550 = LINE('',#551,#552);
#551 = CARTESIAN_POINT('',(-1.60004,1.3000325,1.074886837225));
#552 = VECTOR('',#553,1.);
#553 = DIRECTION('',(8.012279594042E-16,1.,5.602731684113E-17));
#554 = PLANE('',#555);
#555 = AXIS2_PLACEMENT_3D('',#556,#557,#558);
#556 = CARTESIAN_POINT('',(-1.554587572236,1.3000325,1.724886837226));
#557 = DIRECTION('',(-0.99756405026,-1.065746876418E-15,
    6.975647374413E-02));
#558 = DIRECTION('',(6.975647374413E-02,2.465190328816E-32,0.99756405026
    ));
#559 = ADVANCED_FACE('',(#560),#579,.T.);
#560 = FACE_BOUND('',#561,.T.);
#561 = EDGE_LOOP('',(#562,#571,#577,#578));
#562 = ORIENTED_EDGE('',*,*,#563,.T.);
#563 = EDGE_CURVE('',#338,#564,#566,.T.);
#564 = VERTEX_POINT('',#565);
#565 = CARTESIAN_POINT('',(-1.540602209848,1.3000325,0.224886837219));
#566 = CIRCLE('',#567,4.056470985181E-02);
#567 = AXIS2_PLACEMENT_3D('',#568,#569,#570);
#568 = CARTESIAN_POINT('',(-1.500037499999,1.3000325,0.224886837212));
#569 = DIRECTION('',(1.00214066856E-15,-2.672771915561E-15,1.));
#570 = DIRECTION('',(-1.542934706606E-40,-1.,-2.672771915561E-15));
#571 = ORIENTED_EDGE('',*,*,#572,.F.);
#572 = EDGE_CURVE('',#315,#564,#573,.T.);
#573 = LINE('',#574,#575);
#574 = CARTESIAN_POINT('',(-1.60004,1.3000325,1.074886837226));
#575 = VECTOR('',#576,1.);
#576 = DIRECTION('',(6.975647374412E-02,0.,-0.99756405026));
#577 = ORIENTED_EDGE('',*,*,#314,.F.);
#578 = ORIENTED_EDGE('',*,*,#337,.F.);
#579 = CONICAL_SURFACE('',#580,0.1000025,6.981317007912E-02);
#580 = AXIS2_PLACEMENT_3D('',#581,#582,#583);
#581 = CARTESIAN_POINT('',(-1.500037499999,1.3000325,1.074886837169));
#582 = DIRECTION('',(1.00214066856E-15,-2.672771915561E-15,1.));
#583 = DIRECTION('',(6.026879597676E-41,-1.,-2.672771915561E-15));
#584 = ADVANCED_FACE('',(#585,#619),#639,.T.);
#585 = FACE_BOUND('',#586,.T.);
#586 = EDGE_LOOP('',(#587,#588,#589,#598,#606,#612,#613));
#587 = ORIENTED_EDGE('',*,*,#563,.F.);
#588 = ORIENTED_EDGE('',*,*,#354,.F.);
#589 = ORIENTED_EDGE('',*,*,#590,.T.);
#590 = EDGE_CURVE('',#347,#591,#593,.T.);
#591 = VERTEX_POINT('',#592);
#592 = CARTESIAN_POINT('',(1.540602209853,1.3000325,0.224886837216));
#593 = CIRCLE('',#594,4.056470985536E-02);
#594 = AXIS2_PLACEMENT_3D('',#595,#596,#597);
#595 = CARTESIAN_POINT('',(1.5000375,1.3000325,0.224886837212));
#596 = DIRECTION('',(2.235769278336E-15,2.672771915523E-15,-1.));
#597 = DIRECTION('',(7.837336194107E-40,-1.,-2.672771915523E-15));
#598 = ORIENTED_EDGE('',*,*,#599,.T.);
#599 = EDGE_CURVE('',#591,#600,#602,.T.);
#600 = VERTEX_POINT('',#601);
#601 = CARTESIAN_POINT('',(1.540602267622,-0.875402371012,0.224886834674
    ));
#602 = LINE('',#603,#604);
#603 = CARTESIAN_POINT('',(1.540602209848,-1.34059720985,0.224886837226)
  );
#604 = VECTOR('',#605,1.);
#605 = DIRECTION('',(-0.,-1.,-0.));
#606 = ORIENTED_EDGE('',*,*,#607,.T.);
#607 = EDGE_CURVE('',#600,#477,#608,.T.);
#608 = LINE('',#609,#610);
#609 = CARTESIAN_POINT('',(1.540602284683,-0.875402287366,0.224886837226
    ));
#610 = VECTOR('',#611,1.);
#611 = DIRECTION('',(-0.707106629946,-0.707106932427,0.));
#612 = ORIENTED_EDGE('',*,*,#476,.F.);
#613 = ORIENTED_EDGE('',*,*,#614,.T.);
#614 = EDGE_CURVE('',#469,#564,#615,.T.);
#615 = LINE('',#616,#617);
#616 = CARTESIAN_POINT('',(-1.540602209848,-1.34059720985,0.224886837226
    ));
#617 = VECTOR('',#618,1.);
#618 = DIRECTION('',(0.,1.,0.));
#619 = FACE_BOUND('',#620,.T.);
#620 = EDGE_LOOP('',(#621,#632));
#621 = ORIENTED_EDGE('',*,*,#622,.T.);
#622 = EDGE_CURVE('',#623,#625,#627,.T.);
#623 = VERTEX_POINT('',#624);
#624 = CARTESIAN_POINT('',(-2.028235492537E-02,1.200030000033,
    0.224886837212));
#625 = VERTEX_POINT('',#626);
#626 = CARTESIAN_POINT('',(-2.028235492537E-02,-1.200030000009,
    0.224886837212));
#627 = CIRCLE('',#628,1.200030000059);
#628 = AXIS2_PLACEMENT_3D('',#629,#630,#631);
#629 = CARTESIAN_POINT('',(-2.028235492534E-02,-2.273736754432E-13,
    0.224886837212));
#630 = DIRECTION('',(0.,4.517396116899E-17,1.));
#631 = DIRECTION('',(0.,1.,-4.517396116899E-17));
#632 = ORIENTED_EDGE('',*,*,#633,.T.);
#633 = EDGE_CURVE('',#625,#623,#634,.T.);
#634 = CIRCLE('',#635,1.200030000011);
#635 = AXIS2_PLACEMENT_3D('',#636,#637,#638);
#636 = CARTESIAN_POINT('',(-2.028235492534E-02,-2.273736754432E-13,
    0.224886837212));
#637 = DIRECTION('',(0.,4.517396117407E-17,1.));
#638 = DIRECTION('',(0.,1.,-4.517396117407E-17));
#639 = PLANE('',#640);
#640 = AXIS2_PLACEMENT_3D('',#641,#642,#643);
#641 = CARTESIAN_POINT('',(1.540602663443,-1.34059720985,0.224886837226)
  );
#642 = DIRECTION('',(0.,0.,-1.));
#643 = DIRECTION('',(-1.,0.,0.));
#644 = ADVANCED_FACE('',(#645),#656,.T.);
#645 = FACE_BOUND('',#646,.T.);
#646 = EDGE_LOOP('',(#647,#648,#649,#650));
#647 = ORIENTED_EDGE('',*,*,#590,.F.);
#648 = ORIENTED_EDGE('',*,*,#346,.F.);
#649 = ORIENTED_EDGE('',*,*,#377,.F.);
#650 = ORIENTED_EDGE('',*,*,#651,.T.);
#651 = EDGE_CURVE('',#370,#591,#652,.T.);
#652 = LINE('',#653,#654);
#653 = CARTESIAN_POINT('',(3.489507919874E+04,1.3000325,
    4.990010748868E+05));
#654 = VECTOR('',#655,1.);
#655 = DIRECTION('',(-6.9756473742E-02,-0.,-0.99756405026));
#656 = CONICAL_SURFACE('',#657,0.100002499997,6.981317007546E-02);
#657 = AXIS2_PLACEMENT_3D('',#658,#659,#660);
#658 = CARTESIAN_POINT('',(1.5000375,1.3000325,1.074886837112));
#659 = DIRECTION('',(-2.235769278336E-15,-2.672771915523E-15,1.));
#660 = DIRECTION('',(-2.762456734139E-40,-1.,-2.672771915523E-15));
#661 = ADVANCED_FACE('',(#662),#687,.T.);
#662 = FACE_BOUND('',#663,.T.);
#663 = EDGE_LOOP('',(#664,#672,#673,#681));
#664 = ORIENTED_EDGE('',*,*,#665,.T.);
#665 = EDGE_CURVE('',#666,#404,#668,.T.);
#666 = VERTEX_POINT('',#667);
#667 = CARTESIAN_POINT('',(1.600040000002,0.608634248812,0.924886837226)
  );
#668 = LINE('',#669,#670);
#669 = CARTESIAN_POINT('',(1.600040000002,0.608634248815,0.924886837226)
  );
#670 = VECTOR('',#671,1.);
#671 = DIRECTION('',(0.,0.,1.));
#672 = ORIENTED_EDGE('',*,*,#403,.F.);
#673 = ORIENTED_EDGE('',*,*,#674,.T.);
#674 = EDGE_CURVE('',#394,#675,#677,.T.);
#675 = VERTEX_POINT('',#676);
#676 = CARTESIAN_POINT('',(1.600040000002,-0.70863674881,0.924886837226)
  );
#677 = LINE('',#678,#679);
#678 = CARTESIAN_POINT('',(1.600040000002,-0.70863674881,0.924886837226)
  );
#679 = VECTOR('',#680,1.);
#680 = DIRECTION('',(0.,0.,-1.));
#681 = ORIENTED_EDGE('',*,*,#682,.T.);
#682 = EDGE_CURVE('',#675,#666,#683,.T.);
#683 = LINE('',#684,#685);
#684 = CARTESIAN_POINT('',(1.600040000002,0.60863424882,0.924886837226)
  );
#685 = VECTOR('',#686,1.);
#686 = DIRECTION('',(0.,1.,0.));
#687 = PLANE('',#688);
#688 = AXIS2_PLACEMENT_3D('',#689,#690,#691);
#689 = CARTESIAN_POINT('',(1.600040000002,0.60863424882,0.924886837226)
  );
#690 = DIRECTION('',(1.,0.,0.));
#691 = DIRECTION('',(0.,0.,-1.));
#692 = ADVANCED_FACE('',(#693),#712,.T.);
#693 = FACE_BOUND('',#694,.T.);
#694 = EDGE_LOOP('',(#695,#704,#710,#711));
#695 = ORIENTED_EDGE('',*,*,#696,.T.);
#696 = EDGE_CURVE('',#493,#697,#699,.T.);
#697 = VERTEX_POINT('',#698);
#698 = CARTESIAN_POINT('',(1.55458769469,-1.3000325,0.424886837219));
#699 = CIRCLE('',#700,5.455007223373E-02);
#700 = AXIS2_PLACEMENT_3D('',#701,#702,#703);
#701 = CARTESIAN_POINT('',(1.500037500001,-1.3000325,0.424886837219));
#702 = DIRECTION('',(0.,0.,1.));
#703 = DIRECTION('',(1.,0.,0.));
#704 = ORIENTED_EDGE('',*,*,#705,.T.);
#705 = EDGE_CURVE('',#697,#428,#706,.T.);
#706 = LINE('',#707,#708);
#707 = CARTESIAN_POINT('',(3.489507919961E+04,-1.3000325,
    4.990010748868E+05));
#708 = VECTOR('',#709,1.);
#709 = DIRECTION('',(6.975647374373E-02,0.,0.99756405026));
#710 = ORIENTED_EDGE('',*,*,#451,.F.);
#711 = ORIENTED_EDGE('',*,*,#500,.F.);
#712 = CONICAL_SURFACE('',#713,0.100002499982,6.981317007358E-02);
#713 = AXIS2_PLACEMENT_3D('',#714,#715,#716);
#714 = CARTESIAN_POINT('',(1.500037500001,-1.3000325,1.074886837056));
#715 = DIRECTION('',(0.,0.,1.));
#716 = DIRECTION('',(1.,0.,0.));
#717 = ADVANCED_FACE('',(#718),#736,.T.);
#718 = FACE_BOUND('',#719,.T.);
#719 = EDGE_LOOP('',(#720,#728,#729,#730));
#720 = ORIENTED_EDGE('',*,*,#721,.T.);
#721 = EDGE_CURVE('',#722,#697,#724,.T.);
#722 = VERTEX_POINT('',#723);
#723 = CARTESIAN_POINT('',(1.554587852877,-0.841638484391,0.424886842904
    ));
#724 = LINE('',#725,#726);
#725 = CARTESIAN_POINT('',(1.554587817145,-1.35458257224,0.424886837226)
  );
#726 = VECTOR('',#727,1.);
#727 = DIRECTION('',(-0.,-1.,-0.));
#728 = ORIENTED_EDGE('',*,*,#696,.F.);
#729 = ORIENTED_EDGE('',*,*,#492,.F.);
#730 = ORIENTED_EDGE('',*,*,#731,.T.);
#731 = EDGE_CURVE('',#485,#722,#732,.T.);
#732 = LINE('',#733,#734);
#733 = CARTESIAN_POINT('',(1.041643908498,-1.354582572196,0.424886837226
    ));
#734 = VECTOR('',#735,1.);
#735 = DIRECTION('',(0.707106633071,0.707106929302,0.));
#736 = PLANE('',#737);
#737 = AXIS2_PLACEMENT_3D('',#738,#739,#740);
#738 = CARTESIAN_POINT('',(1.041643909648,-1.35458257224,0.424886837226)
  );
#739 = DIRECTION('',(0.,0.,-1.));
#740 = DIRECTION('',(-1.,0.,0.));
#741 = ADVANCED_FACE('',(#742),#753,.T.);
#742 = FACE_BOUND('',#743,.T.);
#743 = EDGE_LOOP('',(#744,#745,#751,#752));
#744 = ORIENTED_EDGE('',*,*,#607,.F.);
#745 = ORIENTED_EDGE('',*,*,#746,.T.);
#746 = EDGE_CURVE('',#600,#722,#747,.T.);
#747 = LINE('',#748,#749);
#748 = CARTESIAN_POINT('',(1.540602383984,-0.875402386667,0.224886841219
    ));
#749 = VECTOR('',#750,1.);
#750 = DIRECTION('',(6.878870672783E-02,0.166069397132,0.983711883207));
#751 = ORIENTED_EDGE('',*,*,#731,.F.);
#752 = ORIENTED_EDGE('',*,*,#484,.F.);
#753 = PLANE('',#754);
#754 = AXIS2_PLACEMENT_3D('',#755,#756,#757);
#755 = CARTESIAN_POINT('',(1.564477206476,-0.85152756457,0.224886837226)
  );
#756 = DIRECTION('',(0.705384304607,-0.705384304607,6.975647374376E-02)
  );
#757 = DIRECTION('',(0.707106781187,0.707106781186,-1.387778780781E-17)
  );
#758 = ADVANCED_FACE('',(#759),#784,.T.);
#759 = FACE_BOUND('',#760,.T.);
#760 = EDGE_LOOP('',(#761,#769,#770,#778));
#761 = ORIENTED_EDGE('',*,*,#762,.T.);
#762 = EDGE_CURVE('',#763,#525,#765,.T.);
#763 = VERTEX_POINT('',#764);
#764 = CARTESIAN_POINT('',(-1.600039999999,-0.708636748809,
    0.924886837226));
#765 = LINE('',#766,#767);
#766 = CARTESIAN_POINT('',(-1.600039999999,-0.708636748809,
    0.924886837226));
#767 = VECTOR('',#768,1.);
#768 = DIRECTION('',(0.,0.,1.));
#769 = ORIENTED_EDGE('',*,*,#524,.F.);
#770 = ORIENTED_EDGE('',*,*,#771,.T.);
#771 = EDGE_CURVE('',#515,#772,#774,.T.);
#772 = VERTEX_POINT('',#773);
#773 = CARTESIAN_POINT('',(-1.600039999999,0.608634248812,0.924886837226
    ));
#774 = LINE('',#775,#776);
#775 = CARTESIAN_POINT('',(-1.600039999999,0.608634248815,0.924886837226
    ));
#776 = VECTOR('',#777,1.);
#777 = DIRECTION('',(-0.,-0.,-1.));
#778 = ORIENTED_EDGE('',*,*,#779,.T.);
#779 = EDGE_CURVE('',#772,#763,#780,.T.);
#780 = LINE('',#781,#782);
#781 = CARTESIAN_POINT('',(-1.600039999999,-0.70863674881,0.924886837226
    ));
#782 = VECTOR('',#783,1.);
#783 = DIRECTION('',(0.,-1.,0.));
#784 = PLANE('',#785);
#785 = AXIS2_PLACEMENT_3D('',#786,#787,#788);
#786 = CARTESIAN_POINT('',(-1.600039999999,-0.70863674881,0.924886837226
    ));
#787 = DIRECTION('',(-1.,0.,0.));
#788 = DIRECTION('',(0.,0.,1.));
#789 = ADVANCED_FACE('',(#790),#819,.T.);
#790 = FACE_BOUND('',#791,.T.);
#791 = EDGE_LOOP('',(#792,#793,#794,#802,#810,#816,#817,#818));
#792 = ORIENTED_EDGE('',*,*,#468,.T.);
#793 = ORIENTED_EDGE('',*,*,#540,.T.);
#794 = ORIENTED_EDGE('',*,*,#795,.T.);
#795 = EDGE_CURVE('',#533,#796,#798,.T.);
#796 = VERTEX_POINT('',#797);
#797 = CARTESIAN_POINT('',(-1.589550715983,-1.074999375,0.924883087227)
  );
#798 = LINE('',#799,#800);
#799 = CARTESIAN_POINT('',(-1.60004,-1.074999375,1.074886837226));
#800 = VECTOR('',#801,1.);
#801 = DIRECTION('',(6.975647374412E-02,0.,-0.99756405026));
#802 = ORIENTED_EDGE('',*,*,#803,.T.);
#803 = EDGE_CURVE('',#796,#804,#806,.T.);
#804 = VERTEX_POINT('',#805);
#805 = CARTESIAN_POINT('',(-1.589550715983,1.125000625,0.924883087227));
#806 = LINE('',#807,#808);
#807 = CARTESIAN_POINT('',(-1.589550715983,1.3000325,0.924883087227));
#808 = VECTOR('',#809,1.);
#809 = DIRECTION('',(8.012279594042E-16,1.,5.602731684113E-17));
#810 = ORIENTED_EDGE('',*,*,#811,.T.);
#811 = EDGE_CURVE('',#804,#517,#812,.T.);
#812 = LINE('',#813,#814);
#813 = CARTESIAN_POINT('',(-1.60004,1.125000625,1.074886837226));
#814 = VECTOR('',#815,1.);
#815 = DIRECTION('',(-6.975647374412E-02,0.,0.99756405026));
#816 = ORIENTED_EDGE('',*,*,#549,.T.);
#817 = ORIENTED_EDGE('',*,*,#572,.T.);
#818 = ORIENTED_EDGE('',*,*,#614,.F.);
#819 = PLANE('',#820);
#820 = AXIS2_PLACEMENT_3D('',#821,#822,#823);
#821 = CARTESIAN_POINT('',(-1.60004,1.3000325,1.074886837226));
#822 = DIRECTION('',(-0.99756405026,8.031844764208E-16,
    -6.975647374412E-02));
#823 = DIRECTION('',(-6.975647374412E-02,0.,0.99756405026));
#824 = ADVANCED_FACE('',(#825),#856,.T.);
#825 = FACE_BOUND('',#826,.T.);
#826 = EDGE_LOOP('',(#827,#835,#836,#837,#838,#839,#840,#841,#842,#850)
  );
#827 = ORIENTED_EDGE('',*,*,#828,.T.);
#828 = EDGE_CURVE('',#829,#396,#831,.T.);
#829 = VERTEX_POINT('',#830);
#830 = CARTESIAN_POINT('',(1.589550715984,-1.074999375,0.924883087227));
#831 = LINE('',#832,#833);
#832 = CARTESIAN_POINT('',(1.540602209849,-1.074999375,0.224886837226));
#833 = VECTOR('',#834,1.);
#834 = DIRECTION('',(6.975647374412E-02,0.,0.99756405026));
#835 = ORIENTED_EDGE('',*,*,#435,.T.);
#836 = ORIENTED_EDGE('',*,*,#705,.F.);
#837 = ORIENTED_EDGE('',*,*,#721,.F.);
#838 = ORIENTED_EDGE('',*,*,#746,.F.);
#839 = ORIENTED_EDGE('',*,*,#599,.F.);
#840 = ORIENTED_EDGE('',*,*,#651,.F.);
#841 = ORIENTED_EDGE('',*,*,#419,.T.);
#842 = ORIENTED_EDGE('',*,*,#843,.T.);
#843 = EDGE_CURVE('',#412,#844,#846,.T.);
#844 = VERTEX_POINT('',#845);
#845 = CARTESIAN_POINT('',(1.589550715984,1.125000625,0.924883087227));
#846 = LINE('',#847,#848);
#847 = CARTESIAN_POINT('',(1.540602209849,1.125000625,0.224886837226));
#848 = VECTOR('',#849,1.);
#849 = DIRECTION('',(-6.975647374412E-02,0.,-0.99756405026));
#850 = ORIENTED_EDGE('',*,*,#851,.T.);
#851 = EDGE_CURVE('',#844,#829,#852,.T.);
#852 = LINE('',#853,#854);
#853 = CARTESIAN_POINT('',(1.589550715984,1.3000325,0.924883087227));
#854 = VECTOR('',#855,1.);
#855 = DIRECTION('',(-5.44044052223E-15,-1.,3.804326612878E-16));
#856 = PLANE('',#857);
#857 = AXIS2_PLACEMENT_3D('',#858,#859,#860);
#858 = CARTESIAN_POINT('',(1.540602209849,1.3000325,0.224886837226));
#859 = DIRECTION('',(0.99756405026,-5.453725523502E-15,
    -6.975647374412E-02));
#860 = DIRECTION('',(-6.975647374412E-02,0.,-0.99756405026));
#861 = ADVANCED_FACE('',(#862),#888,.F.);
#862 = FACE_BOUND('',#863,.F.);
#863 = EDGE_LOOP('',(#864,#865,#873,#882));
#864 = ORIENTED_EDGE('',*,*,#633,.T.);
#865 = ORIENTED_EDGE('',*,*,#866,.T.);
#866 = EDGE_CURVE('',#623,#867,#869,.T.);
#867 = VERTEX_POINT('',#868);
#868 = CARTESIAN_POINT('',(-2.028235492537E-02,0.931326615,0.92488308719
    ));
#869 = LINE('',#870,#871);
#870 = CARTESIAN_POINT('',(-2.028235048471E-02,1.915490272247E+05,
    -4.989989251132E+05));
#871 = VECTOR('',#872,1.);
#872 = DIRECTION('',(-8.308059245459E-15,-0.35836794954,0.933580426499)
  );
#873 = ORIENTED_EDGE('',*,*,#874,.T.);
#874 = EDGE_CURVE('',#867,#875,#877,.T.);
#875 = VERTEX_POINT('',#876);
#876 = CARTESIAN_POINT('',(-2.028235492537E-02,-0.931326614984,
    0.92488308719));
#877 = CIRCLE('',#878,0.931326614978);
#878 = AXIS2_PLACEMENT_3D('',#879,#880,#881);
#879 = CARTESIAN_POINT('',(-2.028235492534E-02,-2.273736754432E-13,
    0.92488308719));
#880 = DIRECTION('',(0.,-4.517396117407E-17,-1.));
#881 = DIRECTION('',(0.,1.,-4.517396117407E-17));
#882 = ORIENTED_EDGE('',*,*,#883,.T.);
#883 = EDGE_CURVE('',#875,#625,#884,.T.);
#884 = LINE('',#885,#886);
#885 = CARTESIAN_POINT('',(-2.02823491058E-02,-1.915490272247E+05,
    -4.989989251132E+05));
#886 = VECTOR('',#887,1.);
#887 = DIRECTION('',(1.088785021352E-14,-0.35836794954,-0.933580426499)
  );
#888 = CONICAL_SURFACE('',#889,1.200029999924,0.366519142928);
#889 = AXIS2_PLACEMENT_3D('',#890,#891,#892);
#890 = CARTESIAN_POINT('',(-2.028235492534E-02,-2.273736754432E-13,
    0.22488683744));
#891 = DIRECTION('',(0.,-4.517396117407E-17,-1.));
#892 = DIRECTION('',(0.,1.,-4.517396117407E-17));
#893 = ADVANCED_FACE('',(#894),#906,.F.);
#894 = FACE_BOUND('',#895,.F.);
#895 = EDGE_LOOP('',(#896,#897,#898,#899));
#896 = ORIENTED_EDGE('',*,*,#866,.F.);
#897 = ORIENTED_EDGE('',*,*,#622,.T.);
#898 = ORIENTED_EDGE('',*,*,#883,.F.);
#899 = ORIENTED_EDGE('',*,*,#900,.T.);
#900 = EDGE_CURVE('',#875,#867,#901,.T.);
#901 = CIRCLE('',#902,0.931326615012);
#902 = AXIS2_PLACEMENT_3D('',#903,#904,#905);
#903 = CARTESIAN_POINT('',(-2.028235492534E-02,-2.273736754432E-13,
    0.92488308719));
#904 = DIRECTION('',(0.,-4.517396116899E-17,-1.));
#905 = DIRECTION('',(0.,1.,-4.517396116899E-17));
#906 = CONICAL_SURFACE('',#907,1.200030000059,0.366519142944);
#907 = AXIS2_PLACEMENT_3D('',#908,#909,#910);
#908 = CARTESIAN_POINT('',(-2.028235492534E-02,-2.273736754432E-13,
    0.224886837212));
#909 = DIRECTION('',(0.,-4.517396116899E-17,-1.));
#910 = DIRECTION('',(0.,1.,-4.517396116899E-17));
#911 = ADVANCED_FACE('',(#912),#939,.F.);
#912 = FACE_BOUND('',#913,.F.);
#913 = EDGE_LOOP('',(#914,#923,#931,#938));
#914 = ORIENTED_EDGE('',*,*,#915,.T.);
#915 = EDGE_CURVE('',#404,#916,#918,.T.);
#916 = VERTEX_POINT('',#917);
#917 = CARTESIAN_POINT('',(1.814335886632,0.32113117163,1.074886837227)
  );
#918 = CIRCLE('',#919,0.300007499995);
#919 = AXIS2_PLACEMENT_3D('',#920,#921,#922);
#920 = CARTESIAN_POINT('',(1.514328386637,0.32113117163,1.074886837227)
  );
#921 = DIRECTION('',(-3.252411518312E-16,-2.424246783171E-16,-1.));
#922 = DIRECTION('',(1.,7.40130179841E-13,-3.252411518313E-16));
#923 = ORIENTED_EDGE('',*,*,#924,.T.);
#924 = EDGE_CURVE('',#916,#925,#927,.T.);
#925 = VERTEX_POINT('',#926);
#926 = CARTESIAN_POINT('',(1.814335886632,0.32113117163,0.924886837226)
  );
#927 = LINE('',#928,#929);
#928 = CARTESIAN_POINT('',(1.814335886632,0.32113117163,0.924886837226)
  );
#929 = VECTOR('',#930,1.);
#930 = DIRECTION('',(-3.252411518312E-16,-2.424246783171E-16,-1.));
#931 = ORIENTED_EDGE('',*,*,#932,.T.);
#932 = EDGE_CURVE('',#925,#666,#933,.T.);
#933 = CIRCLE('',#934,0.300007499995);
#934 = AXIS2_PLACEMENT_3D('',#935,#936,#937);
#935 = CARTESIAN_POINT('',(1.514328386637,0.32113117163,0.924886837226)
  );
#936 = DIRECTION('',(3.252411518312E-16,2.424246783171E-16,1.));
#937 = DIRECTION('',(1.,8.763782435172E-33,-3.252411518312E-16));
#938 = ORIENTED_EDGE('',*,*,#665,.T.);
#939 = CYLINDRICAL_SURFACE('',#940,0.300007499995);
#940 = AXIS2_PLACEMENT_3D('',#941,#942,#943);
#941 = CARTESIAN_POINT('',(1.514328386637,0.32113117163,0.924886837226)
  );
#942 = DIRECTION('',(3.252411518312E-16,2.424246783171E-16,1.));
#943 = DIRECTION('',(1.,8.763782435172E-33,-3.252411518312E-16));
#944 = ADVANCED_FACE('',(#945),#964,.T.);
#945 = FACE_BOUND('',#946,.T.);
#946 = EDGE_LOOP('',(#947,#956,#962,#963));
#947 = ORIENTED_EDGE('',*,*,#948,.T.);
#948 = EDGE_CURVE('',#675,#949,#951,.T.);
#949 = VERTEX_POINT('',#950);
#950 = CARTESIAN_POINT('',(1.814335886633,-0.42113367163,0.924886837226)
  );
#951 = CIRCLE('',#952,0.300007499995);
#952 = AXIS2_PLACEMENT_3D('',#953,#954,#955);
#953 = CARTESIAN_POINT('',(1.514328386639,-0.42113367163,0.924886837226)
  );
#954 = DIRECTION('',(0.,0.,1.));
#955 = DIRECTION('',(1.,0.,0.));
#956 = ORIENTED_EDGE('',*,*,#957,.T.);
#957 = EDGE_CURVE('',#949,#925,#958,.T.);
#958 = LINE('',#959,#960);
#959 = CARTESIAN_POINT('',(1.814335886633,-0.70863674881,0.924886837226)
  );
#960 = VECTOR('',#961,1.);
#961 = DIRECTION('',(0.,1.,0.));
#962 = ORIENTED_EDGE('',*,*,#932,.T.);
#963 = ORIENTED_EDGE('',*,*,#682,.F.);
#964 = PLANE('',#965);
#965 = AXIS2_PLACEMENT_3D('',#966,#967,#968);
#966 = CARTESIAN_POINT('',(1.600040000002,-0.70863674881,0.924886837226)
  );
#967 = DIRECTION('',(0.,0.,1.));
#968 = DIRECTION('',(1.,0.,0.));
#969 = ADVANCED_FACE('',(#970),#989,.F.);
#970 = FACE_BOUND('',#971,.F.);
#971 = EDGE_LOOP('',(#972,#981,#982,#983));
#972 = ORIENTED_EDGE('',*,*,#973,.T.);
#973 = EDGE_CURVE('',#974,#394,#976,.T.);
#974 = VERTEX_POINT('',#975);
#975 = CARTESIAN_POINT('',(1.814335886633,-0.42113367163,1.074886837227)
  );
#976 = CIRCLE('',#977,0.300007499995);
#977 = AXIS2_PLACEMENT_3D('',#978,#979,#980);
#978 = CARTESIAN_POINT('',(1.514328386639,-0.42113367163,1.074886837227)
  );
#979 = DIRECTION('',(0.,0.,-1.));
#980 = DIRECTION('',(1.,0.,0.));
#981 = ORIENTED_EDGE('',*,*,#674,.T.);
#982 = ORIENTED_EDGE('',*,*,#948,.T.);
#983 = ORIENTED_EDGE('',*,*,#984,.T.);
#984 = EDGE_CURVE('',#949,#974,#985,.T.);
#985 = LINE('',#986,#987);
#986 = CARTESIAN_POINT('',(1.814335886633,-0.42113367163,0.924886837226)
  );
#987 = VECTOR('',#988,1.);
#988 = DIRECTION('',(0.,0.,1.));
#989 = CYLINDRICAL_SURFACE('',#990,0.300007499995);
#990 = AXIS2_PLACEMENT_3D('',#991,#992,#993);
#991 = CARTESIAN_POINT('',(1.514328386639,-0.42113367163,0.924886837226)
  );
#992 = DIRECTION('',(0.,0.,1.));
#993 = DIRECTION('',(1.,0.,0.));
#994 = ADVANCED_FACE('',(#995),#1022,.F.);
#995 = FACE_BOUND('',#996,.F.);
#996 = EDGE_LOOP('',(#997,#1006,#1014,#1021));
#997 = ORIENTED_EDGE('',*,*,#998,.T.);
#998 = EDGE_CURVE('',#525,#999,#1001,.T.);
#999 = VERTEX_POINT('',#1000);
#1000 = CARTESIAN_POINT('',(-1.814335886629,-0.42113367163,
    1.074886837226));
#1001 = CIRCLE('',#1002,0.300007499994);
#1002 = AXIS2_PLACEMENT_3D('',#1003,#1004,#1005);
#1003 = CARTESIAN_POINT('',(-1.514328386635,-0.42113367163,
    1.074886837226));
#1004 = DIRECTION('',(0.,-0.,-1.));
#1005 = DIRECTION('',(1.,-7.401301798426E-13,0.));
#1006 = ORIENTED_EDGE('',*,*,#1007,.T.);
#1007 = EDGE_CURVE('',#999,#1008,#1010,.T.);
#1008 = VERTEX_POINT('',#1009);
#1009 = CARTESIAN_POINT('',(-1.814335886629,-0.42113367163,
    0.924886837226));
#1010 = LINE('',#1011,#1012);
#1011 = CARTESIAN_POINT('',(-1.814335886629,-0.42113367163,
    0.924886837226));
#1012 = VECTOR('',#1013,1.);
#1013 = DIRECTION('',(-0.,-0.,-1.));
#1014 = ORIENTED_EDGE('',*,*,#1015,.T.);
#1015 = EDGE_CURVE('',#1008,#763,#1016,.T.);
#1016 = CIRCLE('',#1017,0.300007499994);
#1017 = AXIS2_PLACEMENT_3D('',#1018,#1019,#1020);
#1018 = CARTESIAN_POINT('',(-1.514328386635,-0.42113367163,
    0.924886837226));
#1019 = DIRECTION('',(0.,0.,1.));
#1020 = DIRECTION('',(1.,0.,0.));
#1021 = ORIENTED_EDGE('',*,*,#762,.T.);
#1022 = CYLINDRICAL_SURFACE('',#1023,0.300007499994);
#1023 = AXIS2_PLACEMENT_3D('',#1024,#1025,#1026);
#1024 = CARTESIAN_POINT('',(-1.514328386635,-0.42113367163,
    0.924886837226));
#1025 = DIRECTION('',(0.,0.,1.));
#1026 = DIRECTION('',(1.,0.,0.));
#1027 = ADVANCED_FACE('',(#1028),#1047,.T.);
#1028 = FACE_BOUND('',#1029,.T.);
#1029 = EDGE_LOOP('',(#1030,#1039,#1045,#1046));
#1030 = ORIENTED_EDGE('',*,*,#1031,.T.);
#1031 = EDGE_CURVE('',#772,#1032,#1034,.T.);
#1032 = VERTEX_POINT('',#1033);
#1033 = CARTESIAN_POINT('',(-1.814335886628,0.32113117163,0.924886837226
    ));
#1034 = CIRCLE('',#1035,0.300007499995);
#1035 = AXIS2_PLACEMENT_3D('',#1036,#1037,#1038);
#1036 = CARTESIAN_POINT('',(-1.514328386634,0.32113117163,0.924886837226
    ));
#1037 = DIRECTION('',(-3.252411518311E-16,2.42424678317E-16,1.));
#1038 = DIRECTION('',(1.,-8.763782435194E-33,3.252411518311E-16));
#1039 = ORIENTED_EDGE('',*,*,#1040,.T.);
#1040 = EDGE_CURVE('',#1032,#1008,#1041,.T.);
#1041 = LINE('',#1042,#1043);
#1042 = CARTESIAN_POINT('',(-1.814335886628,-0.70863674881,
    0.924886837226));
#1043 = VECTOR('',#1044,1.);
#1044 = DIRECTION('',(0.,-1.,0.));
#1045 = ORIENTED_EDGE('',*,*,#1015,.T.);
#1046 = ORIENTED_EDGE('',*,*,#779,.F.);
#1047 = PLANE('',#1048);
#1048 = AXIS2_PLACEMENT_3D('',#1049,#1050,#1051);
#1049 = CARTESIAN_POINT('',(-1.814335886629,-0.70863674881,
    0.924886837226));
#1050 = DIRECTION('',(0.,0.,1.));
#1051 = DIRECTION('',(1.,0.,0.));
#1052 = ADVANCED_FACE('',(#1053),#1072,.F.);
#1053 = FACE_BOUND('',#1054,.F.);
#1054 = EDGE_LOOP('',(#1055,#1064,#1065,#1066));
#1055 = ORIENTED_EDGE('',*,*,#1056,.T.);
#1056 = EDGE_CURVE('',#1057,#515,#1059,.T.);
#1057 = VERTEX_POINT('',#1058);
#1058 = CARTESIAN_POINT('',(-1.814335886628,0.32113117163,1.074886837225
    ));
#1059 = CIRCLE('',#1060,0.300007499995);
#1060 = AXIS2_PLACEMENT_3D('',#1061,#1062,#1063);
#1061 = CARTESIAN_POINT('',(-1.514328386634,0.32113117163,1.074886837225
    ));
#1062 = DIRECTION('',(3.252411518311E-16,-2.42424678317E-16,-1.));
#1063 = DIRECTION('',(1.,4.300234662397E-44,3.252411518311E-16));
#1064 = ORIENTED_EDGE('',*,*,#771,.T.);
#1065 = ORIENTED_EDGE('',*,*,#1031,.T.);
#1066 = ORIENTED_EDGE('',*,*,#1067,.T.);
#1067 = EDGE_CURVE('',#1032,#1057,#1068,.T.);
#1068 = LINE('',#1069,#1070);
#1069 = CARTESIAN_POINT('',(-1.814335886629,0.32113117163,0.924886837226
    ));
#1070 = VECTOR('',#1071,1.);
#1071 = DIRECTION('',(-3.252411518311E-16,2.42424678317E-16,1.));
#1072 = CYLINDRICAL_SURFACE('',#1073,0.300007499995);
#1073 = AXIS2_PLACEMENT_3D('',#1074,#1075,#1076);
#1074 = CARTESIAN_POINT('',(-1.514328386634,0.32113117163,0.924886837226
    ));
#1075 = DIRECTION('',(-3.252411518311E-16,2.42424678317E-16,1.));
#1076 = DIRECTION('',(1.,-8.763782435194E-33,3.252411518311E-16));
#1077 = ADVANCED_FACE('',(#1078),#1171,.T.);
#1078 = FACE_BOUND('',#1079,.T.);
#1079 = EDGE_LOOP('',(#1080,#1090,#1099,#1105,#1106,#1114,#1123,#1131,
    #1140,#1148,#1156,#1164));
#1080 = ORIENTED_EDGE('',*,*,#1081,.F.);
#1081 = EDGE_CURVE('',#1082,#1084,#1086,.T.);
#1082 = VERTEX_POINT('',#1083);
#1083 = CARTESIAN_POINT('',(-2.031125420159,1.125000625,1.034657406018)
  );
#1084 = VERTEX_POINT('',#1085);
#1085 = CARTESIAN_POINT('',(-2.199397230006,1.125000625,0.190233181224)
  );
#1086 = LINE('',#1087,#1088);
#1087 = CARTESIAN_POINT('',(-2.031125420159,1.125000625,1.034657406018)
  );
#1088 = VECTOR('',#1089,1.);
#1089 = DIRECTION('',(-0.195431490033,-0.,-0.980717356175));
#1090 = ORIENTED_EDGE('',*,*,#1091,.F.);
#1091 = EDGE_CURVE('',#1092,#1082,#1094,.T.);
#1092 = VERTEX_POINT('',#1093);
#1093 = CARTESIAN_POINT('',(-1.982088326454,1.125000625,1.074886837226)
  );
#1094 = CIRCLE('',#1095,5.000124999995E-02);
#1095 = AXIS2_PLACEMENT_3D('',#1096,#1097,#1098);
#1096 = CARTESIAN_POINT('',(-1.982088326454,1.125000625,1.024885587227)
  );
#1097 = DIRECTION('',(0.,-1.,0.));
#1098 = DIRECTION('',(0.,0.,-1.));
#1099 = ORIENTED_EDGE('',*,*,#1100,.F.);
#1100 = EDGE_CURVE('',#517,#1092,#1101,.T.);
#1101 = LINE('',#1102,#1103);
#1102 = CARTESIAN_POINT('',(-1.982088326454,1.125000625,1.074886837225)
  );
#1103 = VECTOR('',#1104,1.);
#1104 = DIRECTION('',(-1.,0.,0.));
#1105 = ORIENTED_EDGE('',*,*,#811,.F.);
#1106 = ORIENTED_EDGE('',*,*,#1107,.T.);
#1107 = EDGE_CURVE('',#804,#1108,#1110,.T.);
#1108 = VERTEX_POINT('',#1109);
#1109 = CARTESIAN_POINT('',(-1.85902708677,1.125000625,0.924883087227));
#1110 = LINE('',#1111,#1112);
#1111 = CARTESIAN_POINT('',(-2.600065,1.125000625,0.924883087227));
#1112 = VECTOR('',#1113,1.);
#1113 = DIRECTION('',(-1.,0.,0.));
#1114 = ORIENTED_EDGE('',*,*,#1115,.T.);
#1115 = EDGE_CURVE('',#1108,#1116,#1118,.T.);
#1116 = VERTEX_POINT('',#1117);
#1117 = CARTESIAN_POINT('',(-1.908064180478,1.125000625,0.884653656018)
  );
#1118 = CIRCLE('',#1119,5.000125000057E-02);
#1119 = AXIS2_PLACEMENT_3D('',#1120,#1121,#1122);
#1120 = CARTESIAN_POINT('',(-1.859027086772,1.125000625,0.874881837226)
  );
#1121 = DIRECTION('',(5.41302701404E-12,-1.,-6.598132385728E-12));
#1122 = DIRECTION('',(-1.167780090251E-23,6.598132385728E-12,-1.));
#1123 = ORIENTED_EDGE('',*,*,#1124,.F.);
#1124 = EDGE_CURVE('',#1125,#1116,#1127,.T.);
#1125 = VERTEX_POINT('',#1126);
#1126 = CARTESIAN_POINT('',(-2.076335990325,1.125000625,
    4.022943122401E-02));
#1127 = LINE('',#1128,#1129);
#1128 = CARTESIAN_POINT('',(-2.076335990325,1.125000625,
    4.022943122385E-02));
#1129 = VECTOR('',#1130,1.);
#1130 = DIRECTION('',(0.195431490033,0.,0.980717356175));
#1131 = ORIENTED_EDGE('',*,*,#1132,.F.);
#1132 = EDGE_CURVE('',#1133,#1125,#1135,.T.);
#1133 = VERTEX_POINT('',#1134);
#1134 = CARTESIAN_POINT('',(-2.125373084031,1.125000625,
    1.477507005632E-11));
#1135 = CIRCLE('',#1136,5.000125000047E-02);
#1136 = AXIS2_PLACEMENT_3D('',#1137,#1138,#1139);
#1137 = CARTESIAN_POINT('',(-2.125373084031,1.125000625,
    5.000125001521E-02));
#1138 = DIRECTION('',(0.,-1.,0.));
#1139 = DIRECTION('',(0.,0.,-1.));
#1140 = ORIENTED_EDGE('',*,*,#1141,.F.);
#1141 = EDGE_CURVE('',#1142,#1133,#1144,.T.);
#1142 = VERTEX_POINT('',#1143);
#1143 = CARTESIAN_POINT('',(-2.600065,1.125000625,1.4878098753E-11));
#1144 = LINE('',#1145,#1146);
#1145 = CARTESIAN_POINT('',(-2.125373084031,1.125000625,
    1.488031919905E-11));
#1146 = VECTOR('',#1147,1.);
#1147 = DIRECTION('',(1.,0.,0.));
#1148 = ORIENTED_EDGE('',*,*,#1149,.F.);
#1149 = EDGE_CURVE('',#1150,#1142,#1152,.T.);
#1150 = VERTEX_POINT('',#1151);
#1151 = CARTESIAN_POINT('',(-2.600065,1.125000625,0.150003750015));
#1152 = LINE('',#1153,#1154);
#1153 = CARTESIAN_POINT('',(-2.600065,1.125000625,0.150003750015));
#1154 = VECTOR('',#1155,1.);
#1155 = DIRECTION('',(-0.,-0.,-1.));
#1156 = ORIENTED_EDGE('',*,*,#1157,.F.);
#1157 = EDGE_CURVE('',#1158,#1150,#1160,.T.);
#1158 = VERTEX_POINT('',#1159);
#1159 = CARTESIAN_POINT('',(-2.248434323714,1.125000625,0.150003750015)
  );
#1160 = LINE('',#1161,#1162);
#1161 = CARTESIAN_POINT('',(-2.248434323711,1.125000625,0.150003750015)
  );
#1162 = VECTOR('',#1163,1.);
#1163 = DIRECTION('',(-1.,0.,0.));
#1164 = ORIENTED_EDGE('',*,*,#1165,.T.);
#1165 = EDGE_CURVE('',#1158,#1084,#1166,.T.);
#1166 = CIRCLE('',#1167,5.000124999997E-02);
#1167 = AXIS2_PLACEMENT_3D('',#1168,#1169,#1170);
#1168 = CARTESIAN_POINT('',(-2.24843432371,1.125000625,0.200005000015));
#1169 = DIRECTION('',(-5.413027014179E-12,-1.,6.598132385798E-12));
#1170 = DIRECTION('',(-1.16778009029E-23,-6.598132385798E-12,-1.));
#1171 = PLANE('',#1172);
#1172 = AXIS2_PLACEMENT_3D('',#1173,#1174,#1175);
#1173 = CARTESIAN_POINT('',(-2.600065,1.125000625,1.074886837227));
#1174 = DIRECTION('',(0.,1.,0.));
#1175 = DIRECTION('',(0.,0.,1.));
#1176 = ADVANCED_FACE('',(#1177),#1195,.T.);
#1177 = FACE_BOUND('',#1178,.T.);
#1178 = EDGE_LOOP('',(#1179,#1180,#1188,#1194));
#1179 = ORIENTED_EDGE('',*,*,#803,.F.);
#1180 = ORIENTED_EDGE('',*,*,#1181,.T.);
#1181 = EDGE_CURVE('',#796,#1182,#1184,.T.);
#1182 = VERTEX_POINT('',#1183);
#1183 = CARTESIAN_POINT('',(-1.859027086764,-1.074999375,0.924883087227)
  );
#1184 = LINE('',#1185,#1186);
#1185 = CARTESIAN_POINT('',(-1.589550715983,-1.074999375,0.924883087227)
  );
#1186 = VECTOR('',#1187,1.);
#1187 = DIRECTION('',(-1.,0.,0.));
#1188 = ORIENTED_EDGE('',*,*,#1189,.T.);
#1189 = EDGE_CURVE('',#1182,#1108,#1190,.T.);
#1190 = LINE('',#1191,#1192);
#1191 = CARTESIAN_POINT('',(-1.859027086767,1.125000625,0.924883087227)
  );
#1192 = VECTOR('',#1193,1.);
#1193 = DIRECTION('',(0.,1.,0.));
#1194 = ORIENTED_EDGE('',*,*,#1107,.F.);
#1195 = PLANE('',#1196);
#1196 = AXIS2_PLACEMENT_3D('',#1197,#1198,#1199);
#1197 = CARTESIAN_POINT('',(-1.589550715983,1.125000625,0.924883087227)
  );
#1198 = DIRECTION('',(0.,0.,-1.));
#1199 = DIRECTION('',(-1.,0.,0.));
#1200 = ADVANCED_FACE('',(#1201),#1287,.T.);
#1201 = FACE_BOUND('',#1202,.T.);
#1202 = EDGE_LOOP('',(#1203,#1214,#1222,#1229,#1230,#1231,#1239,#1248,
    #1256,#1265,#1273,#1281));
#1203 = ORIENTED_EDGE('',*,*,#1204,.F.);
#1204 = EDGE_CURVE('',#1205,#1207,#1209,.T.);
#1205 = VERTEX_POINT('',#1206);
#1206 = CARTESIAN_POINT('',(-2.076335990325,-1.074999375,
    4.022943122401E-02));
#1207 = VERTEX_POINT('',#1208);
#1208 = CARTESIAN_POINT('',(-2.125373084031,-1.074999375,
    1.481015310389E-11));
#1209 = CIRCLE('',#1210,5.000125000047E-02);
#1210 = AXIS2_PLACEMENT_3D('',#1211,#1212,#1213);
#1211 = CARTESIAN_POINT('',(-2.125373084031,-1.074999375,
    5.000125001521E-02));
#1212 = DIRECTION('',(-0.,1.,0.));
#1213 = DIRECTION('',(0.,0.,-1.));
#1214 = ORIENTED_EDGE('',*,*,#1215,.F.);
#1215 = EDGE_CURVE('',#1216,#1205,#1218,.T.);
#1216 = VERTEX_POINT('',#1217);
#1217 = CARTESIAN_POINT('',(-1.908064180474,-1.074999375,0.884653656005)
  );
#1218 = LINE('',#1219,#1220);
#1219 = CARTESIAN_POINT('',(-2.076335990325,-1.074999375,
    4.022943122385E-02));
#1220 = VECTOR('',#1221,1.);
#1221 = DIRECTION('',(-0.195431490033,0.,-0.980717356175));
#1222 = ORIENTED_EDGE('',*,*,#1223,.T.);
#1223 = EDGE_CURVE('',#1216,#1182,#1224,.T.);
#1224 = CIRCLE('',#1225,5.000125000057E-02);
#1225 = AXIS2_PLACEMENT_3D('',#1226,#1227,#1228);
#1226 = CARTESIAN_POINT('',(-1.85902708676,-1.074999375,0.874881837212)
  );
#1227 = DIRECTION('',(-5.41302701404E-12,1.,6.598132385728E-12));
#1228 = DIRECTION('',(-1.167780090251E-23,6.598132385728E-12,-1.));
#1229 = ORIENTED_EDGE('',*,*,#1181,.F.);
#1230 = ORIENTED_EDGE('',*,*,#795,.F.);
#1231 = ORIENTED_EDGE('',*,*,#1232,.F.);
#1232 = EDGE_CURVE('',#1233,#533,#1235,.T.);
#1233 = VERTEX_POINT('',#1234);
#1234 = CARTESIAN_POINT('',(-1.982088326454,-1.074999375,1.074886837226)
  );
#1235 = LINE('',#1236,#1237);
#1236 = CARTESIAN_POINT('',(-1.982088326454,-1.074999375,1.074886837225)
  );
#1237 = VECTOR('',#1238,1.);
#1238 = DIRECTION('',(1.,0.,0.));
#1239 = ORIENTED_EDGE('',*,*,#1240,.F.);
#1240 = EDGE_CURVE('',#1241,#1233,#1243,.T.);
#1241 = VERTEX_POINT('',#1242);
#1242 = CARTESIAN_POINT('',(-2.031125420159,-1.074999375,1.034657406018)
  );
#1243 = CIRCLE('',#1244,5.000124999995E-02);
#1244 = AXIS2_PLACEMENT_3D('',#1245,#1246,#1247);
#1245 = CARTESIAN_POINT('',(-1.982088326454,-1.074999375,1.024885587227)
  );
#1246 = DIRECTION('',(-0.,1.,0.));
#1247 = DIRECTION('',(0.,0.,-1.));
#1248 = ORIENTED_EDGE('',*,*,#1249,.F.);
#1249 = EDGE_CURVE('',#1250,#1241,#1252,.T.);
#1250 = VERTEX_POINT('',#1251);
#1251 = CARTESIAN_POINT('',(-2.19939723001,-1.074999375,0.190233181237)
  );
#1252 = LINE('',#1253,#1254);
#1253 = CARTESIAN_POINT('',(-2.031125420159,-1.074999375,1.034657406018)
  );
#1254 = VECTOR('',#1255,1.);
#1255 = DIRECTION('',(0.195431490033,0.,0.980717356175));
#1256 = ORIENTED_EDGE('',*,*,#1257,.T.);
#1257 = EDGE_CURVE('',#1250,#1258,#1260,.T.);
#1258 = VERTEX_POINT('',#1259);
#1259 = CARTESIAN_POINT('',(-2.24843432372,-1.074999375,0.150003750015)
  );
#1260 = CIRCLE('',#1261,5.000124999997E-02);
#1261 = AXIS2_PLACEMENT_3D('',#1262,#1263,#1264);
#1262 = CARTESIAN_POINT('',(-2.248434323722,-1.074999375,0.20000500003)
  );
#1263 = DIRECTION('',(5.413027014179E-12,1.,-6.598132385798E-12));
#1264 = DIRECTION('',(-1.16778009029E-23,-6.598132385798E-12,-1.));
#1265 = ORIENTED_EDGE('',*,*,#1266,.F.);
#1266 = EDGE_CURVE('',#1267,#1258,#1269,.T.);
#1267 = VERTEX_POINT('',#1268);
#1268 = CARTESIAN_POINT('',(-2.600065,-1.074999375,0.150003750015));
#1269 = LINE('',#1270,#1271);
#1270 = CARTESIAN_POINT('',(-2.248434323711,-1.074999375,0.150003750015)
  );
#1271 = VECTOR('',#1272,1.);
#1272 = DIRECTION('',(1.,0.,0.));
#1273 = ORIENTED_EDGE('',*,*,#1274,.F.);
#1274 = EDGE_CURVE('',#1275,#1267,#1277,.T.);
#1275 = VERTEX_POINT('',#1276);
#1276 = CARTESIAN_POINT('',(-2.600065,-1.074999375,1.4878098753E-11));
#1277 = LINE('',#1278,#1279);
#1278 = CARTESIAN_POINT('',(-2.600065,-1.074999375,0.150003750015));
#1279 = VECTOR('',#1280,1.);
#1280 = DIRECTION('',(0.,0.,1.));
#1281 = ORIENTED_EDGE('',*,*,#1282,.F.);
#1282 = EDGE_CURVE('',#1207,#1275,#1283,.T.);
#1283 = LINE('',#1284,#1285);
#1284 = CARTESIAN_POINT('',(-2.125373084031,-1.074999375,
    1.488031919905E-11));
#1285 = VECTOR('',#1286,1.);
#1286 = DIRECTION('',(-1.,0.,0.));
#1287 = PLANE('',#1288);
#1288 = AXIS2_PLACEMENT_3D('',#1289,#1290,#1291);
#1289 = CARTESIAN_POINT('',(-2.600065,-1.074999375,1.074886837227));
#1290 = DIRECTION('',(0.,-1.,0.));
#1291 = DIRECTION('',(0.,0.,-1.));
#1292 = ADVANCED_FACE('',(#1293),#1386,.T.);
#1293 = FACE_BOUND('',#1294,.T.);
#1294 = EDGE_LOOP('',(#1295,#1306,#1314,#1323,#1329,#1330,#1338,#1347,
    #1355,#1364,#1372,#1380));
#1295 = ORIENTED_EDGE('',*,*,#1296,.T.);
#1296 = EDGE_CURVE('',#1297,#1299,#1301,.T.);
#1297 = VERTEX_POINT('',#1298);
#1298 = CARTESIAN_POINT('',(2.248434323711,-1.074999375,0.150003750015)
  );
#1299 = VERTEX_POINT('',#1300);
#1300 = CARTESIAN_POINT('',(2.199397230005,-1.074999375,0.190233181224)
  );
#1301 = CIRCLE('',#1302,5.000124999994E-02);
#1302 = AXIS2_PLACEMENT_3D('',#1303,#1304,#1305);
#1303 = CARTESIAN_POINT('',(2.248434323711,-1.074999375,0.200005000015)
  );
#1304 = DIRECTION('',(-0.,1.,0.));
#1305 = DIRECTION('',(0.,0.,-1.));
#1306 = ORIENTED_EDGE('',*,*,#1307,.F.);
#1307 = EDGE_CURVE('',#1308,#1299,#1310,.T.);
#1308 = VERTEX_POINT('',#1309);
#1309 = CARTESIAN_POINT('',(2.031125420159,-1.074999375,1.034657406018)
  );
#1310 = LINE('',#1311,#1312);
#1311 = CARTESIAN_POINT('',(2.199397230006,-1.074999375,0.190233181224)
  );
#1312 = VECTOR('',#1313,1.);
#1313 = DIRECTION('',(0.195431490033,0.,-0.980717356175));
#1314 = ORIENTED_EDGE('',*,*,#1315,.F.);
#1315 = EDGE_CURVE('',#1316,#1308,#1318,.T.);
#1316 = VERTEX_POINT('',#1317);
#1317 = CARTESIAN_POINT('',(1.982088326454,-1.074999375,1.074886837227)
  );
#1318 = CIRCLE('',#1319,5.000125000058E-02);
#1319 = AXIS2_PLACEMENT_3D('',#1320,#1321,#1322);
#1320 = CARTESIAN_POINT('',(1.982088326454,-1.074999375,1.024885587226)
  );
#1321 = DIRECTION('',(-0.,1.,0.));
#1322 = DIRECTION('',(0.,0.,-1.));
#1323 = ORIENTED_EDGE('',*,*,#1324,.F.);
#1324 = EDGE_CURVE('',#396,#1316,#1325,.T.);
#1325 = LINE('',#1326,#1327);
#1326 = CARTESIAN_POINT('',(1.600040000001,-1.074999375,1.074886837227)
  );
#1327 = VECTOR('',#1328,1.);
#1328 = DIRECTION('',(1.,0.,0.));
#1329 = ORIENTED_EDGE('',*,*,#828,.F.);
#1330 = ORIENTED_EDGE('',*,*,#1331,.T.);
#1331 = EDGE_CURVE('',#829,#1332,#1334,.T.);
#1332 = VERTEX_POINT('',#1333);
#1333 = CARTESIAN_POINT('',(1.859027086767,-1.074999375,0.924883087227)
  );
#1334 = LINE('',#1335,#1336);
#1335 = CARTESIAN_POINT('',(1.589550715983,-1.074999375,0.924883087227)
  );
#1336 = VECTOR('',#1337,1.);
#1337 = DIRECTION('',(1.,0.,0.));
#1338 = ORIENTED_EDGE('',*,*,#1339,.T.);
#1339 = EDGE_CURVE('',#1332,#1340,#1342,.T.);
#1340 = VERTEX_POINT('',#1341);
#1341 = CARTESIAN_POINT('',(1.908064180473,-1.074999375,0.884653656007)
  );
#1342 = CIRCLE('',#1343,5.000125000059E-02);
#1343 = AXIS2_PLACEMENT_3D('',#1344,#1345,#1346);
#1344 = CARTESIAN_POINT('',(1.859027086761,-1.074999375,0.874881837212)
  );
#1345 = DIRECTION('',(5.413027014048E-12,1.,6.598132385747E-12));
#1346 = DIRECTION('',(1.167780090264E-23,6.598132385747E-12,-1.));
#1347 = ORIENTED_EDGE('',*,*,#1348,.F.);
#1348 = EDGE_CURVE('',#1349,#1340,#1351,.T.);
#1349 = VERTEX_POINT('',#1350);
#1350 = CARTESIAN_POINT('',(2.076335990326,-1.074999375,
    4.022943121728E-02));
#1351 = LINE('',#1352,#1353);
#1352 = CARTESIAN_POINT('',(1.908064180479,-1.074999375,0.884653656018)
  );
#1353 = VECTOR('',#1354,1.);
#1354 = DIRECTION('',(-0.195431490033,0.,0.980717356175));
#1355 = ORIENTED_EDGE('',*,*,#1356,.F.);
#1356 = EDGE_CURVE('',#1357,#1349,#1359,.T.);
#1357 = VERTEX_POINT('',#1358);
#1358 = CARTESIAN_POINT('',(2.125373084022,-1.074999375,
    1.488031919905E-11));
#1359 = CIRCLE('',#1360,5.00012499994E-02);
#1360 = AXIS2_PLACEMENT_3D('',#1361,#1362,#1363);
#1361 = CARTESIAN_POINT('',(2.125373084019,-1.074999375,
    5.00012499994E-02));
#1362 = DIRECTION('',(5.413027014049E-12,1.,6.598132385562E-12));
#1363 = DIRECTION('',(1.167780090107E-23,6.598132385562E-12,-1.));
#1364 = ORIENTED_EDGE('',*,*,#1365,.F.);
#1365 = EDGE_CURVE('',#1366,#1357,#1368,.T.);
#1366 = VERTEX_POINT('',#1367);
#1367 = CARTESIAN_POINT('',(2.600065,-1.074999375,1.488031919905E-11));
#1368 = LINE('',#1369,#1370);
#1369 = CARTESIAN_POINT('',(2.600065,-1.074999375,1.488031919905E-11));
#1370 = VECTOR('',#1371,1.);
#1371 = DIRECTION('',(-1.,0.,0.));
#1372 = ORIENTED_EDGE('',*,*,#1373,.F.);
#1373 = EDGE_CURVE('',#1374,#1366,#1376,.T.);
#1374 = VERTEX_POINT('',#1375);
#1375 = CARTESIAN_POINT('',(2.600065,-1.074999375,0.150003750015));
#1376 = LINE('',#1377,#1378);
#1377 = CARTESIAN_POINT('',(2.600065,-1.074999375,1.488031919905E-11));
#1378 = VECTOR('',#1379,1.);
#1379 = DIRECTION('',(0.,0.,-1.));
#1380 = ORIENTED_EDGE('',*,*,#1381,.F.);
#1381 = EDGE_CURVE('',#1297,#1374,#1382,.T.);
#1382 = LINE('',#1383,#1384);
#1383 = CARTESIAN_POINT('',(2.600065,-1.074999375,0.150003750015));
#1384 = VECTOR('',#1385,1.);
#1385 = DIRECTION('',(1.,0.,0.));
#1386 = PLANE('',#1387);
#1387 = AXIS2_PLACEMENT_3D('',#1388,#1389,#1390);
#1388 = CARTESIAN_POINT('',(1.589550715983,-1.074999375,1.074886837227)
  );
#1389 = DIRECTION('',(0.,-1.,0.));
#1390 = DIRECTION('',(0.,0.,-1.));
#1391 = ADVANCED_FACE('',(#1392),#1410,.T.);
#1392 = FACE_BOUND('',#1393,.T.);
#1393 = EDGE_LOOP('',(#1394,#1402,#1403,#1404));
#1394 = ORIENTED_EDGE('',*,*,#1395,.T.);
#1395 = EDGE_CURVE('',#1396,#1332,#1398,.T.);
#1396 = VERTEX_POINT('',#1397);
#1397 = CARTESIAN_POINT('',(1.859027086773,1.125000625,0.924883087227));
#1398 = LINE('',#1399,#1400);
#1399 = CARTESIAN_POINT('',(1.859027086773,1.125000625,0.924883087227));
#1400 = VECTOR('',#1401,1.);
#1401 = DIRECTION('',(-0.,-1.,-0.));
#1402 = ORIENTED_EDGE('',*,*,#1331,.F.);
#1403 = ORIENTED_EDGE('',*,*,#851,.F.);
#1404 = ORIENTED_EDGE('',*,*,#1405,.T.);
#1405 = EDGE_CURVE('',#844,#1396,#1406,.T.);
#1406 = LINE('',#1407,#1408);
#1407 = CARTESIAN_POINT('',(1.859027086773,1.125000625,0.924883087227));
#1408 = VECTOR('',#1409,1.);
#1409 = DIRECTION('',(1.,0.,0.));
#1410 = PLANE('',#1411);
#1411 = AXIS2_PLACEMENT_3D('',#1412,#1413,#1414);
#1412 = CARTESIAN_POINT('',(1.859027086773,1.125000625,0.924883087227));
#1413 = DIRECTION('',(0.,0.,-1.));
#1414 = DIRECTION('',(-1.,0.,0.));
#1415 = ADVANCED_FACE('',(#1416),#1502,.T.);
#1416 = FACE_BOUND('',#1417,.T.);
#1417 = EDGE_LOOP('',(#1418,#1428,#1435,#1436,#1437,#1445,#1454,#1462,
    #1471,#1479,#1487,#1495));
#1418 = ORIENTED_EDGE('',*,*,#1419,.F.);
#1419 = EDGE_CURVE('',#1420,#1422,#1424,.T.);
#1420 = VERTEX_POINT('',#1421);
#1421 = CARTESIAN_POINT('',(1.908064180478,1.125000625,0.88465365602));
#1422 = VERTEX_POINT('',#1423);
#1423 = CARTESIAN_POINT('',(2.076335990325,1.125000625,
    4.022943122312E-02));
#1424 = LINE('',#1425,#1426);
#1425 = CARTESIAN_POINT('',(1.908064180479,1.125000625,0.884653656018));
#1426 = VECTOR('',#1427,1.);
#1427 = DIRECTION('',(0.195431490033,0.,-0.980717356175));
#1428 = ORIENTED_EDGE('',*,*,#1429,.T.);
#1429 = EDGE_CURVE('',#1420,#1396,#1430,.T.);
#1430 = CIRCLE('',#1431,5.000125000059E-02);
#1431 = AXIS2_PLACEMENT_3D('',#1432,#1433,#1434);
#1432 = CARTESIAN_POINT('',(1.859027086773,1.125000625,0.874881837226));
#1433 = DIRECTION('',(-5.413027014048E-12,-1.,-6.598132385747E-12));
#1434 = DIRECTION('',(1.167780090264E-23,6.598132385747E-12,-1.));
#1435 = ORIENTED_EDGE('',*,*,#1405,.F.);
#1436 = ORIENTED_EDGE('',*,*,#843,.F.);
#1437 = ORIENTED_EDGE('',*,*,#1438,.F.);
#1438 = EDGE_CURVE('',#1439,#412,#1441,.T.);
#1439 = VERTEX_POINT('',#1440);
#1440 = CARTESIAN_POINT('',(1.982088326454,1.125000625,1.074886837227));
#1441 = LINE('',#1442,#1443);
#1442 = CARTESIAN_POINT('',(1.600040000001,1.125000625,1.074886837227));
#1443 = VECTOR('',#1444,1.);
#1444 = DIRECTION('',(-1.,0.,0.));
#1445 = ORIENTED_EDGE('',*,*,#1446,.F.);
#1446 = EDGE_CURVE('',#1447,#1439,#1449,.T.);
#1447 = VERTEX_POINT('',#1448);
#1448 = CARTESIAN_POINT('',(2.031125420159,1.125000625,1.034657406018));
#1449 = CIRCLE('',#1450,5.000125000058E-02);
#1450 = AXIS2_PLACEMENT_3D('',#1451,#1452,#1453);
#1451 = CARTESIAN_POINT('',(1.982088326454,1.125000625,1.024885587226));
#1452 = DIRECTION('',(0.,-1.,0.));
#1453 = DIRECTION('',(0.,0.,-1.));
#1454 = ORIENTED_EDGE('',*,*,#1455,.F.);
#1455 = EDGE_CURVE('',#1456,#1447,#1458,.T.);
#1456 = VERTEX_POINT('',#1457);
#1457 = CARTESIAN_POINT('',(2.199397230005,1.125000625,0.190233181224));
#1458 = LINE('',#1459,#1460);
#1459 = CARTESIAN_POINT('',(2.199397230006,1.125000625,0.190233181224));
#1460 = VECTOR('',#1461,1.);
#1461 = DIRECTION('',(-0.195431490033,0.,0.980717356175));
#1462 = ORIENTED_EDGE('',*,*,#1463,.T.);
#1463 = EDGE_CURVE('',#1456,#1464,#1466,.T.);
#1464 = VERTEX_POINT('',#1465);
#1465 = CARTESIAN_POINT('',(2.248434323711,1.125000625,0.150003750015));
#1466 = CIRCLE('',#1467,5.000124999994E-02);
#1467 = AXIS2_PLACEMENT_3D('',#1468,#1469,#1470);
#1468 = CARTESIAN_POINT('',(2.248434323711,1.125000625,0.200005000015));
#1469 = DIRECTION('',(0.,-1.,0.));
#1470 = DIRECTION('',(0.,0.,-1.));
#1471 = ORIENTED_EDGE('',*,*,#1472,.F.);
#1472 = EDGE_CURVE('',#1473,#1464,#1475,.T.);
#1473 = VERTEX_POINT('',#1474);
#1474 = CARTESIAN_POINT('',(2.600065,1.125000625,0.150003750015));
#1475 = LINE('',#1476,#1477);
#1476 = CARTESIAN_POINT('',(2.600065,1.125000625,0.150003750015));
#1477 = VECTOR('',#1478,1.);
#1478 = DIRECTION('',(-1.,0.,0.));
#1479 = ORIENTED_EDGE('',*,*,#1480,.F.);
#1480 = EDGE_CURVE('',#1481,#1473,#1483,.T.);
#1481 = VERTEX_POINT('',#1482);
#1482 = CARTESIAN_POINT('',(2.600065,1.125000625,1.488031919905E-11));
#1483 = LINE('',#1484,#1485);
#1484 = CARTESIAN_POINT('',(2.600065,1.125000625,1.488031919905E-11));
#1485 = VECTOR('',#1486,1.);
#1486 = DIRECTION('',(0.,0.,1.));
#1487 = ORIENTED_EDGE('',*,*,#1488,.F.);
#1488 = EDGE_CURVE('',#1489,#1481,#1491,.T.);
#1489 = VERTEX_POINT('',#1490);
#1490 = CARTESIAN_POINT('',(2.125373084028,1.125000625,
    1.488031919905E-11));
#1491 = LINE('',#1492,#1493);
#1492 = CARTESIAN_POINT('',(2.600065,1.125000625,1.488031919905E-11));
#1493 = VECTOR('',#1494,1.);
#1494 = DIRECTION('',(1.,0.,0.));
#1495 = ORIENTED_EDGE('',*,*,#1496,.F.);
#1496 = EDGE_CURVE('',#1422,#1489,#1497,.T.);
#1497 = CIRCLE('',#1498,5.00012499994E-02);
#1498 = AXIS2_PLACEMENT_3D('',#1499,#1500,#1501);
#1499 = CARTESIAN_POINT('',(2.125373084031,1.125000625,
    5.000125001391E-02));
#1500 = DIRECTION('',(-5.413027014049E-12,-1.,-6.598132385562E-12));
#1501 = DIRECTION('',(1.167780090107E-23,6.598132385562E-12,-1.));
#1502 = PLANE('',#1503);
#1503 = AXIS2_PLACEMENT_3D('',#1504,#1505,#1506);
#1504 = CARTESIAN_POINT('',(1.589550715983,1.125000625,1.074886837227));
#1505 = DIRECTION('',(0.,1.,0.));
#1506 = DIRECTION('',(0.,0.,1.));
#1507 = ADVANCED_FACE('',(#1508),#1512,.T.);
#1508 = FACE_BOUND('',#1509,.T.);
#1509 = EDGE_LOOP('',(#1510,#1511));
#1510 = ORIENTED_EDGE('',*,*,#900,.T.);
#1511 = ORIENTED_EDGE('',*,*,#874,.T.);
#1512 = PLANE('',#1513);
#1513 = AXIS2_PLACEMENT_3D('',#1514,#1515,#1516);
#1514 = CARTESIAN_POINT('',(0.911044260041,0.93132661497,0.924883087227)
  );
#1515 = DIRECTION('',(0.,0.,-1.));
#1516 = DIRECTION('',(-1.,0.,0.));
#1517 = ADVANCED_FACE('',(#1518),#1529,.T.);
#1518 = FACE_BOUND('',#1519,.T.);
#1519 = EDGE_LOOP('',(#1520,#1521,#1527,#1528));
#1520 = ORIENTED_EDGE('',*,*,#984,.T.);
#1521 = ORIENTED_EDGE('',*,*,#1522,.F.);
#1522 = EDGE_CURVE('',#916,#974,#1523,.T.);
#1523 = LINE('',#1524,#1525);
#1524 = CARTESIAN_POINT('',(1.814335886632,-1.074999375,1.074886837227)
  );
#1525 = VECTOR('',#1526,1.);
#1526 = DIRECTION('',(0.,-1.,0.));
#1527 = ORIENTED_EDGE('',*,*,#924,.T.);
#1528 = ORIENTED_EDGE('',*,*,#957,.F.);
#1529 = PLANE('',#1530);
#1530 = AXIS2_PLACEMENT_3D('',#1531,#1532,#1533);
#1531 = CARTESIAN_POINT('',(1.814335886633,-0.42113367163,0.924886837226
    ));
#1532 = DIRECTION('',(-1.,0.,0.));
#1533 = DIRECTION('',(0.,0.,1.));
#1534 = ADVANCED_FACE('',(#1535),#1546,.T.);
#1535 = FACE_BOUND('',#1536,.T.);
#1536 = EDGE_LOOP('',(#1537,#1538,#1544,#1545));
#1537 = ORIENTED_EDGE('',*,*,#1067,.T.);
#1538 = ORIENTED_EDGE('',*,*,#1539,.F.);
#1539 = EDGE_CURVE('',#999,#1057,#1540,.T.);
#1540 = LINE('',#1541,#1542);
#1541 = CARTESIAN_POINT('',(-1.814335886628,-1.074999375,1.074886837225)
  );
#1542 = VECTOR('',#1543,1.);
#1543 = DIRECTION('',(0.,1.,0.));
#1544 = ORIENTED_EDGE('',*,*,#1007,.T.);
#1545 = ORIENTED_EDGE('',*,*,#1040,.F.);
#1546 = PLANE('',#1547);
#1547 = AXIS2_PLACEMENT_3D('',#1548,#1549,#1550);
#1548 = CARTESIAN_POINT('',(-1.814335886629,0.32113117163,0.924886837226
    ));
#1549 = DIRECTION('',(1.,0.,0.));
#1550 = DIRECTION('',(0.,0.,-1.));
#1551 = ADVANCED_FACE('',(#1552),#1563,.F.);
#1552 = FACE_BOUND('',#1553,.F.);
#1553 = EDGE_LOOP('',(#1554,#1555,#1556,#1562));
#1554 = ORIENTED_EDGE('',*,*,#1189,.T.);
#1555 = ORIENTED_EDGE('',*,*,#1115,.T.);
#1556 = ORIENTED_EDGE('',*,*,#1557,.T.);
#1557 = EDGE_CURVE('',#1116,#1216,#1558,.T.);
#1558 = LINE('',#1559,#1560);
#1559 = CARTESIAN_POINT('',(-1.908064180478,1.125000625,0.884653656018)
  );
#1560 = VECTOR('',#1561,1.);
#1561 = DIRECTION('',(5.41302701404E-12,-1.,-6.598132385728E-12));
#1562 = ORIENTED_EDGE('',*,*,#1223,.T.);
#1563 = CYLINDRICAL_SURFACE('',#1564,5.000125000057E-02);
#1564 = AXIS2_PLACEMENT_3D('',#1565,#1566,#1567);
#1565 = CARTESIAN_POINT('',(-1.859027086772,1.125000625,0.874881837226)
  );
#1566 = DIRECTION('',(5.41302701404E-12,-1.,-6.598132385728E-12));
#1567 = DIRECTION('',(-1.167780090251E-23,6.598132385728E-12,-1.));
#1568 = ADVANCED_FACE('',(#1569),#1580,.F.);
#1569 = FACE_BOUND('',#1570,.F.);
#1570 = EDGE_LOOP('',(#1571,#1577,#1578,#1579));
#1571 = ORIENTED_EDGE('',*,*,#1572,.T.);
#1572 = EDGE_CURVE('',#1340,#1420,#1573,.T.);
#1573 = LINE('',#1574,#1575);
#1574 = CARTESIAN_POINT('',(1.908064180478,1.125000625,0.884653656023));
#1575 = VECTOR('',#1576,1.);
#1576 = DIRECTION('',(5.413027014048E-12,1.,6.598132385747E-12));
#1577 = ORIENTED_EDGE('',*,*,#1429,.T.);
#1578 = ORIENTED_EDGE('',*,*,#1395,.T.);
#1579 = ORIENTED_EDGE('',*,*,#1339,.T.);
#1580 = CYLINDRICAL_SURFACE('',#1581,5.000125000059E-02);
#1581 = AXIS2_PLACEMENT_3D('',#1582,#1583,#1584);
#1582 = CARTESIAN_POINT('',(1.859027086773,1.125000625,0.874881837226));
#1583 = DIRECTION('',(-5.413027014048E-12,-1.,-6.598132385747E-12));
#1584 = DIRECTION('',(1.167780090264E-23,6.598132385747E-12,-1.));
#1585 = ADVANCED_FACE('',(#1586),#1597,.T.);
#1586 = FACE_BOUND('',#1587,.T.);
#1587 = EDGE_LOOP('',(#1588,#1589,#1590,#1591));
#1588 = ORIENTED_EDGE('',*,*,#1124,.T.);
#1589 = ORIENTED_EDGE('',*,*,#1557,.T.);
#1590 = ORIENTED_EDGE('',*,*,#1215,.T.);
#1591 = ORIENTED_EDGE('',*,*,#1592,.T.);
#1592 = EDGE_CURVE('',#1205,#1125,#1593,.T.);
#1593 = LINE('',#1594,#1595);
#1594 = CARTESIAN_POINT('',(-2.076335990325,1.125000625,
    4.022943122395E-02));
#1595 = VECTOR('',#1596,1.);
#1596 = DIRECTION('',(-4.040407055783E-17,1.,8.051481563789E-18));
#1597 = PLANE('',#1598);
#1598 = AXIS2_PLACEMENT_3D('',#1599,#1600,#1601);
#1599 = CARTESIAN_POINT('',(-2.076335990325,1.125000625,
    4.022943122385E-02));
#1600 = DIRECTION('',(0.980717356175,4.119848629518E-17,-0.195431490033)
  );
#1601 = DIRECTION('',(-0.195431490033,0.,-0.980717356175));
#1602 = ADVANCED_FACE('',(#1603),#1614,.T.);
#1603 = FACE_BOUND('',#1604,.T.);
#1604 = EDGE_LOOP('',(#1605,#1606,#1612,#1613));
#1605 = ORIENTED_EDGE('',*,*,#1419,.T.);
#1606 = ORIENTED_EDGE('',*,*,#1607,.T.);
#1607 = EDGE_CURVE('',#1422,#1349,#1608,.T.);
#1608 = LINE('',#1609,#1610);
#1609 = CARTESIAN_POINT('',(2.076335990325,1.125000625,
    4.022943122333E-02));
#1610 = VECTOR('',#1611,1.);
#1611 = DIRECTION('',(1.822455795343E-15,-1.,3.631680925808E-16));
#1612 = ORIENTED_EDGE('',*,*,#1348,.T.);
#1613 = ORIENTED_EDGE('',*,*,#1572,.T.);
#1614 = PLANE('',#1615);
#1615 = AXIS2_PLACEMENT_3D('',#1616,#1617,#1618);
#1616 = CARTESIAN_POINT('',(1.908064180479,1.125000625,0.884653656018));
#1617 = DIRECTION('',(-0.980717356175,-1.858288510821E-15,
    -0.195431490033));
#1618 = DIRECTION('',(-0.195431490033,0.,0.980717356175));
#1619 = ADVANCED_FACE('',(#1620),#1631,.T.);
#1620 = FACE_BOUND('',#1621,.T.);
#1621 = EDGE_LOOP('',(#1622,#1628,#1629,#1630));
#1622 = ORIENTED_EDGE('',*,*,#1623,.T.);
#1623 = EDGE_CURVE('',#1207,#1133,#1624,.T.);
#1624 = LINE('',#1625,#1626);
#1625 = CARTESIAN_POINT('',(-2.125373084031,1.125000625,
    1.473954291953E-11));
#1626 = VECTOR('',#1627,1.);
#1627 = DIRECTION('',(0.,1.,0.));
#1628 = ORIENTED_EDGE('',*,*,#1132,.T.);
#1629 = ORIENTED_EDGE('',*,*,#1592,.F.);
#1630 = ORIENTED_EDGE('',*,*,#1204,.T.);
#1631 = CYLINDRICAL_SURFACE('',#1632,5.000125000047E-02);
#1632 = AXIS2_PLACEMENT_3D('',#1633,#1634,#1635);
#1633 = CARTESIAN_POINT('',(-2.125373084031,1.125000625,
    5.000125001521E-02));
#1634 = DIRECTION('',(0.,-1.,0.));
#1635 = DIRECTION('',(0.,0.,-1.));
#1636 = ADVANCED_FACE('',(#1637),#1648,.T.);
#1637 = FACE_BOUND('',#1638,.T.);
#1638 = EDGE_LOOP('',(#1639,#1640,#1641,#1647));
#1639 = ORIENTED_EDGE('',*,*,#1607,.F.);
#1640 = ORIENTED_EDGE('',*,*,#1496,.T.);
#1641 = ORIENTED_EDGE('',*,*,#1642,.T.);
#1642 = EDGE_CURVE('',#1489,#1357,#1643,.T.);
#1643 = LINE('',#1644,#1645);
#1644 = CARTESIAN_POINT('',(2.125373084025,-1.074999375,
    1.488031919905E-11));
#1645 = VECTOR('',#1646,1.);
#1646 = DIRECTION('',(-0.,-1.,-0.));
#1647 = ORIENTED_EDGE('',*,*,#1356,.T.);
#1648 = CYLINDRICAL_SURFACE('',#1649,5.00012499994E-02);
#1649 = AXIS2_PLACEMENT_3D('',#1650,#1651,#1652);
#1650 = CARTESIAN_POINT('',(2.125373084031,1.125000625,
    5.000125001391E-02));
#1651 = DIRECTION('',(-5.413027014049E-12,-1.,-6.598132385562E-12));
#1652 = DIRECTION('',(1.167780090107E-23,6.598132385562E-12,-1.));
#1653 = ADVANCED_FACE('',(#1654),#1665,.T.);
#1654 = FACE_BOUND('',#1655,.T.);
#1655 = EDGE_LOOP('',(#1656,#1657,#1658,#1664));
#1656 = ORIENTED_EDGE('',*,*,#1623,.F.);
#1657 = ORIENTED_EDGE('',*,*,#1282,.T.);
#1658 = ORIENTED_EDGE('',*,*,#1659,.T.);
#1659 = EDGE_CURVE('',#1275,#1142,#1660,.T.);
#1660 = LINE('',#1661,#1662);
#1661 = CARTESIAN_POINT('',(-2.600065,1.125000625,1.488031919905E-11));
#1662 = VECTOR('',#1663,1.);
#1663 = DIRECTION('',(0.,1.,0.));
#1664 = ORIENTED_EDGE('',*,*,#1141,.T.);
#1665 = PLANE('',#1666);
#1666 = AXIS2_PLACEMENT_3D('',#1667,#1668,#1669);
#1667 = CARTESIAN_POINT('',(-2.125373084031,1.125000625,
    1.488031919905E-11));
#1668 = DIRECTION('',(0.,0.,-1.));
#1669 = DIRECTION('',(-1.,0.,0.));
#1670 = ADVANCED_FACE('',(#1671),#1682,.T.);
#1671 = FACE_BOUND('',#1672,.T.);
#1672 = EDGE_LOOP('',(#1673,#1674,#1675,#1676));
#1673 = ORIENTED_EDGE('',*,*,#1365,.T.);
#1674 = ORIENTED_EDGE('',*,*,#1642,.F.);
#1675 = ORIENTED_EDGE('',*,*,#1488,.T.);
#1676 = ORIENTED_EDGE('',*,*,#1677,.T.);
#1677 = EDGE_CURVE('',#1481,#1366,#1678,.T.);
#1678 = LINE('',#1679,#1680);
#1679 = CARTESIAN_POINT('',(2.600065,-1.074999375,1.488031919905E-11));
#1680 = VECTOR('',#1681,1.);
#1681 = DIRECTION('',(-0.,-1.,-0.));
#1682 = PLANE('',#1683);
#1683 = AXIS2_PLACEMENT_3D('',#1684,#1685,#1686);
#1684 = CARTESIAN_POINT('',(2.600065,-1.074999375,1.488031919905E-11));
#1685 = DIRECTION('',(0.,0.,-1.));
#1686 = DIRECTION('',(-1.,0.,0.));
#1687 = ADVANCED_FACE('',(#1688),#1699,.T.);
#1688 = FACE_BOUND('',#1689,.T.);
#1689 = EDGE_LOOP('',(#1690,#1691,#1692,#1693));
#1690 = ORIENTED_EDGE('',*,*,#1149,.T.);
#1691 = ORIENTED_EDGE('',*,*,#1659,.F.);
#1692 = ORIENTED_EDGE('',*,*,#1274,.T.);
#1693 = ORIENTED_EDGE('',*,*,#1694,.T.);
#1694 = EDGE_CURVE('',#1267,#1150,#1695,.T.);
#1695 = LINE('',#1696,#1697);
#1696 = CARTESIAN_POINT('',(-2.600065,1.125000625,0.150003750015));
#1697 = VECTOR('',#1698,1.);
#1698 = DIRECTION('',(0.,1.,0.));
#1699 = PLANE('',#1700);
#1700 = AXIS2_PLACEMENT_3D('',#1701,#1702,#1703);
#1701 = CARTESIAN_POINT('',(-2.600065,1.125000625,0.150003750015));
#1702 = DIRECTION('',(-1.,0.,0.));
#1703 = DIRECTION('',(0.,0.,1.));
#1704 = ADVANCED_FACE('',(#1705),#1716,.T.);
#1705 = FACE_BOUND('',#1706,.T.);
#1706 = EDGE_LOOP('',(#1707,#1708,#1714,#1715));
#1707 = ORIENTED_EDGE('',*,*,#1480,.T.);
#1708 = ORIENTED_EDGE('',*,*,#1709,.T.);
#1709 = EDGE_CURVE('',#1473,#1374,#1710,.T.);
#1710 = LINE('',#1711,#1712);
#1711 = CARTESIAN_POINT('',(2.600065,1.125000625,0.150003750015));
#1712 = VECTOR('',#1713,1.);
#1713 = DIRECTION('',(-0.,-1.,-0.));
#1714 = ORIENTED_EDGE('',*,*,#1373,.T.);
#1715 = ORIENTED_EDGE('',*,*,#1677,.F.);
#1716 = PLANE('',#1717);
#1717 = AXIS2_PLACEMENT_3D('',#1718,#1719,#1720);
#1718 = CARTESIAN_POINT('',(2.600065,1.125000625,1.488031919905E-11));
#1719 = DIRECTION('',(1.,0.,0.));
#1720 = DIRECTION('',(0.,0.,-1.));
#1721 = ADVANCED_FACE('',(#1722),#1733,.T.);
#1722 = FACE_BOUND('',#1723,.T.);
#1723 = EDGE_LOOP('',(#1724,#1730,#1731,#1732));
#1724 = ORIENTED_EDGE('',*,*,#1725,.T.);
#1725 = EDGE_CURVE('',#1258,#1158,#1726,.T.);
#1726 = LINE('',#1727,#1728);
#1727 = CARTESIAN_POINT('',(-2.248434323717,-1.074999375,0.150003750015)
  );
#1728 = VECTOR('',#1729,1.);
#1729 = DIRECTION('',(0.,1.,0.));
#1730 = ORIENTED_EDGE('',*,*,#1157,.T.);
#1731 = ORIENTED_EDGE('',*,*,#1694,.F.);
#1732 = ORIENTED_EDGE('',*,*,#1266,.T.);
#1733 = PLANE('',#1734);
#1734 = AXIS2_PLACEMENT_3D('',#1735,#1736,#1737);
#1735 = CARTESIAN_POINT('',(-2.248434323711,-1.074999375,0.150003750015)
  );
#1736 = DIRECTION('',(0.,0.,1.));
#1737 = DIRECTION('',(1.,0.,0.));
#1738 = ADVANCED_FACE('',(#1739),#1750,.T.);
#1739 = FACE_BOUND('',#1740,.T.);
#1740 = EDGE_LOOP('',(#1741,#1742,#1743,#1749));
#1741 = ORIENTED_EDGE('',*,*,#1709,.F.);
#1742 = ORIENTED_EDGE('',*,*,#1472,.T.);
#1743 = ORIENTED_EDGE('',*,*,#1744,.T.);
#1744 = EDGE_CURVE('',#1464,#1297,#1745,.T.);
#1745 = LINE('',#1746,#1747);
#1746 = CARTESIAN_POINT('',(2.248434323711,-1.074999375,0.150003750015)
  );
#1747 = VECTOR('',#1748,1.);
#1748 = DIRECTION('',(0.,-1.,0.));
#1749 = ORIENTED_EDGE('',*,*,#1381,.T.);
#1750 = PLANE('',#1751);
#1751 = AXIS2_PLACEMENT_3D('',#1752,#1753,#1754);
#1752 = CARTESIAN_POINT('',(2.600065,-1.074999375,0.150003750015));
#1753 = DIRECTION('',(0.,0.,1.));
#1754 = DIRECTION('',(1.,0.,0.));
#1755 = ADVANCED_FACE('',(#1756),#1767,.F.);
#1756 = FACE_BOUND('',#1757,.F.);
#1757 = EDGE_LOOP('',(#1758,#1759,#1760,#1766));
#1758 = ORIENTED_EDGE('',*,*,#1725,.T.);
#1759 = ORIENTED_EDGE('',*,*,#1165,.T.);
#1760 = ORIENTED_EDGE('',*,*,#1761,.T.);
#1761 = EDGE_CURVE('',#1084,#1250,#1762,.T.);
#1762 = LINE('',#1763,#1764);
#1763 = CARTESIAN_POINT('',(-2.199397230005,1.125000625,0.190233181224)
  );
#1764 = VECTOR('',#1765,1.);
#1765 = DIRECTION('',(-5.413027014179E-12,-1.,6.598132385798E-12));
#1766 = ORIENTED_EDGE('',*,*,#1257,.T.);
#1767 = CYLINDRICAL_SURFACE('',#1768,5.000124999997E-02);
#1768 = AXIS2_PLACEMENT_3D('',#1769,#1770,#1771);
#1769 = CARTESIAN_POINT('',(-2.24843432371,1.125000625,0.200005000015));
#1770 = DIRECTION('',(-5.413027014179E-12,-1.,6.598132385798E-12));
#1771 = DIRECTION('',(-1.16778009029E-23,-6.598132385798E-12,-1.));
#1772 = ADVANCED_FACE('',(#1773),#1784,.F.);
#1773 = FACE_BOUND('',#1774,.F.);
#1774 = EDGE_LOOP('',(#1775,#1781,#1782,#1783));
#1775 = ORIENTED_EDGE('',*,*,#1776,.T.);
#1776 = EDGE_CURVE('',#1299,#1456,#1777,.T.);
#1777 = LINE('',#1778,#1779);
#1778 = CARTESIAN_POINT('',(2.199397230005,1.125000625,0.190233181224));
#1779 = VECTOR('',#1780,1.);
#1780 = DIRECTION('',(0.,1.,0.));
#1781 = ORIENTED_EDGE('',*,*,#1463,.T.);
#1782 = ORIENTED_EDGE('',*,*,#1744,.T.);
#1783 = ORIENTED_EDGE('',*,*,#1296,.T.);
#1784 = CYLINDRICAL_SURFACE('',#1785,5.000124999994E-02);
#1785 = AXIS2_PLACEMENT_3D('',#1786,#1787,#1788);
#1786 = CARTESIAN_POINT('',(2.248434323711,1.125000625,0.200005000015));
#1787 = DIRECTION('',(0.,-1.,0.));
#1788 = DIRECTION('',(0.,0.,-1.));
#1789 = ADVANCED_FACE('',(#1790),#1801,.T.);
#1790 = FACE_BOUND('',#1791,.T.);
#1791 = EDGE_LOOP('',(#1792,#1793,#1794,#1795));
#1792 = ORIENTED_EDGE('',*,*,#1081,.T.);
#1793 = ORIENTED_EDGE('',*,*,#1761,.T.);
#1794 = ORIENTED_EDGE('',*,*,#1249,.T.);
#1795 = ORIENTED_EDGE('',*,*,#1796,.T.);
#1796 = EDGE_CURVE('',#1241,#1082,#1797,.T.);
#1797 = LINE('',#1798,#1799);
#1798 = CARTESIAN_POINT('',(-2.031125420159,1.125000625,1.034657406018)
  );
#1799 = VECTOR('',#1800,1.);
#1800 = DIRECTION('',(-2.85852703745E-15,1.,5.696301739867E-16));
#1801 = PLANE('',#1802);
#1802 = AXIS2_PLACEMENT_3D('',#1803,#1804,#1805);
#1803 = CARTESIAN_POINT('',(-2.031125420159,1.125000625,1.034657406018)
  );
#1804 = DIRECTION('',(-0.980717356175,-2.914730752394E-15,0.195431490033
    ));
#1805 = DIRECTION('',(0.195431490033,0.,0.980717356175));
#1806 = ADVANCED_FACE('',(#1807),#1818,.T.);
#1807 = FACE_BOUND('',#1808,.T.);
#1808 = EDGE_LOOP('',(#1809,#1810,#1816,#1817));
#1809 = ORIENTED_EDGE('',*,*,#1455,.T.);
#1810 = ORIENTED_EDGE('',*,*,#1811,.T.);
#1811 = EDGE_CURVE('',#1447,#1308,#1812,.T.);
#1812 = LINE('',#1813,#1814);
#1813 = CARTESIAN_POINT('',(2.031125420159,1.125000625,1.034657406018));
#1814 = VECTOR('',#1815,1.);
#1815 = DIRECTION('',(-4.953133982263E-15,-1.,-9.870309201643E-16));
#1816 = ORIENTED_EDGE('',*,*,#1307,.T.);
#1817 = ORIENTED_EDGE('',*,*,#1776,.T.);
#1818 = PLANE('',#1819);
#1819 = AXIS2_PLACEMENT_3D('',#1820,#1821,#1822);
#1820 = CARTESIAN_POINT('',(2.199397230006,1.125000625,0.190233181224));
#1821 = DIRECTION('',(0.980717356175,-5.050521387304E-15,0.195431490033)
  );
#1822 = DIRECTION('',(0.195431490033,0.,-0.980717356175));
#1823 = ADVANCED_FACE('',(#1824),#1835,.T.);
#1824 = FACE_BOUND('',#1825,.T.);
#1825 = EDGE_LOOP('',(#1826,#1832,#1833,#1834));
#1826 = ORIENTED_EDGE('',*,*,#1827,.T.);
#1827 = EDGE_CURVE('',#1233,#1092,#1828,.T.);
#1828 = LINE('',#1829,#1830);
#1829 = CARTESIAN_POINT('',(-1.982088326454,1.125000625,1.074886837227)
  );
#1830 = VECTOR('',#1831,1.);
#1831 = DIRECTION('',(0.,1.,0.));
#1832 = ORIENTED_EDGE('',*,*,#1091,.T.);
#1833 = ORIENTED_EDGE('',*,*,#1796,.F.);
#1834 = ORIENTED_EDGE('',*,*,#1240,.T.);
#1835 = CYLINDRICAL_SURFACE('',#1836,5.000124999995E-02);
#1836 = AXIS2_PLACEMENT_3D('',#1837,#1838,#1839);
#1837 = CARTESIAN_POINT('',(-1.982088326454,1.125000625,1.024885587227)
  );
#1838 = DIRECTION('',(0.,-1.,0.));
#1839 = DIRECTION('',(0.,0.,-1.));
#1840 = ADVANCED_FACE('',(#1841),#1852,.T.);
#1841 = FACE_BOUND('',#1842,.T.);
#1842 = EDGE_LOOP('',(#1843,#1844,#1845,#1851));
#1843 = ORIENTED_EDGE('',*,*,#1811,.F.);
#1844 = ORIENTED_EDGE('',*,*,#1446,.T.);
#1845 = ORIENTED_EDGE('',*,*,#1846,.T.);
#1846 = EDGE_CURVE('',#1439,#1316,#1847,.T.);
#1847 = LINE('',#1848,#1849);
#1848 = CARTESIAN_POINT('',(1.982088326454,1.125000625,1.074886837227));
#1849 = VECTOR('',#1850,1.);
#1850 = DIRECTION('',(0.,-1.,0.));
#1851 = ORIENTED_EDGE('',*,*,#1315,.T.);
#1852 = CYLINDRICAL_SURFACE('',#1853,5.000125000058E-02);
#1853 = AXIS2_PLACEMENT_3D('',#1854,#1855,#1856);
#1854 = CARTESIAN_POINT('',(1.982088326454,1.125000625,1.024885587226));
#1855 = DIRECTION('',(0.,-1.,0.));
#1856 = DIRECTION('',(0.,0.,-1.));
#1857 = ADVANCED_FACE('',(#1858),#1868,.T.);
#1858 = FACE_BOUND('',#1859,.T.);
#1859 = EDGE_LOOP('',(#1860,#1861,#1862,#1863,#1864,#1865,#1866,#1867));
#1860 = ORIENTED_EDGE('',*,*,#1100,.T.);
#1861 = ORIENTED_EDGE('',*,*,#1827,.F.);
#1862 = ORIENTED_EDGE('',*,*,#1232,.T.);
#1863 = ORIENTED_EDGE('',*,*,#532,.T.);
#1864 = ORIENTED_EDGE('',*,*,#998,.T.);
#1865 = ORIENTED_EDGE('',*,*,#1539,.T.);
#1866 = ORIENTED_EDGE('',*,*,#1056,.T.);
#1867 = ORIENTED_EDGE('',*,*,#514,.T.);
#1868 = PLANE('',#1869);
#1869 = AXIS2_PLACEMENT_3D('',#1870,#1871,#1872);
#1870 = CARTESIAN_POINT('',(-1.982088326454,-1.074999375,1.074886837225)
  );
#1871 = DIRECTION('',(0.,0.,1.));
#1872 = DIRECTION('',(1.,0.,0.));
#1873 = ADVANCED_FACE('',(#1874),#1884,.T.);
#1874 = FACE_BOUND('',#1875,.T.);
#1875 = EDGE_LOOP('',(#1876,#1877,#1878,#1879,#1880,#1881,#1882,#1883));
#1876 = ORIENTED_EDGE('',*,*,#1324,.T.);
#1877 = ORIENTED_EDGE('',*,*,#1846,.F.);
#1878 = ORIENTED_EDGE('',*,*,#1438,.T.);
#1879 = ORIENTED_EDGE('',*,*,#411,.T.);
#1880 = ORIENTED_EDGE('',*,*,#915,.T.);
#1881 = ORIENTED_EDGE('',*,*,#1522,.T.);
#1882 = ORIENTED_EDGE('',*,*,#973,.T.);
#1883 = ORIENTED_EDGE('',*,*,#393,.T.);
#1884 = PLANE('',#1885);
#1885 = AXIS2_PLACEMENT_3D('',#1886,#1887,#1888);
#1886 = CARTESIAN_POINT('',(1.600040000001,-1.074999375,1.074886837227)
  );
#1887 = DIRECTION('',(0.,0.,1.));
#1888 = DIRECTION('',(1.,0.,0.));
#1889 = ( GEOMETRIC_REPRESENTATION_CONTEXT(3) 
GLOBAL_UNCERTAINTY_ASSIGNED_CONTEXT((#1893)) 
GLOBAL_UNIT_ASSIGNED_CONTEXT((#1890,#1891,#1892)) REPRESENTATION_CONTEXT
('Context #1','3D Context with UNIT and UNCERTAINTY') );
#1890 = ( LENGTH_UNIT() NAMED_UNIT(*) SI_UNIT(.MILLI.,.METRE.) );
#1891 = ( NAMED_UNIT(*) PLANE_ANGLE_UNIT() SI_UNIT($,.RADIAN.) );
#1892 = ( NAMED_UNIT(*) SI_UNIT($,.STERADIAN.) SOLID_ANGLE_UNIT() );
#1893 = UNCERTAINTY_MEASURE_WITH_UNIT(LENGTH_MEASURE(1.E-07),#1890,
  'distance_accuracy_value','confusion accuracy');
#1894 = PRODUCT_RELATED_PRODUCT_CATEGORY('part',$,(#7));
#30000 = COLOUR_RGB ( '', 1.0, 1.0, 1.0 ) ;
#31000 = STYLED_ITEM ( 'NONE', ( #31001 ), #17 ) ;
#31001 = PRESENTATION_STYLE_ASSIGNMENT (( #31002 )) ;
#31002 = SURFACE_STYLE_USAGE ( .BOTH. , #31003 ) ;
#31003 = SURFACE_SIDE_STYLE ( '', ( #31004 ) ) ;
#31004 = SURFACE_STYLE_FILL_AREA ( #31005 ) ;
#31005 = FILL_AREA_STYLE ( '', ( #31006 ) ) ;
#31006 = FILL_AREA_STYLE_COLOUR ( '', #30000 ) ;
#31007 = STYLED_ITEM ( 'NONE', ( #31008 ), #57 ) ;
#31008 = PRESENTATION_STYLE_ASSIGNMENT (( #31009 )) ;
#31009 = SURFACE_STYLE_USAGE ( .BOTH. , #31010 ) ;
#31010 = SURFACE_SIDE_STYLE ( '', ( #31011 ) ) ;
#31011 = SURFACE_STYLE_FILL_AREA ( #31012 ) ;
#31012 = FILL_AREA_STYLE ( '', ( #31013 ) ) ;
#31013 = FILL_AREA_STYLE_COLOUR ( '', #30000 ) ;
#31014 = STYLED_ITEM ( 'NONE', ( #31015 ), #88 ) ;
#31015 = PRESENTATION_STYLE_ASSIGNMENT (( #31016 )) ;
#31016 = SURFACE_STYLE_USAGE ( .BOTH. , #31017 ) ;
#31017 = SURFACE_SIDE_STYLE ( '', ( #31018 ) ) ;
#31018 = SURFACE_STYLE_FILL_AREA ( #31019 ) ;
#31019 = FILL_AREA_STYLE ( '', ( #31020 ) ) ;
#31020 = FILL_AREA_STYLE_COLOUR ( '', #30000 ) ;
#31021 = STYLED_ITEM ( 'NONE', ( #31022 ), #112 ) ;
#31022 = PRESENTATION_STYLE_ASSIGNMENT (( #31023 )) ;
#31023 = SURFACE_STYLE_USAGE ( .BOTH. , #31024 ) ;
#31024 = SURFACE_SIDE_STYLE ( '', ( #31025 ) ) ;
#31025 = SURFACE_STYLE_FILL_AREA ( #31026 ) ;
#31026 = FILL_AREA_STYLE ( '', ( #31027 ) ) ;
#31027 = FILL_AREA_STYLE_COLOUR ( '', #30000 ) ;
#31028 = STYLED_ITEM ( 'NONE', ( #31029 ), #136 ) ;
#31029 = PRESENTATION_STYLE_ASSIGNMENT (( #31030 )) ;
#31030 = SURFACE_STYLE_USAGE ( .BOTH. , #31031 ) ;
#31031 = SURFACE_SIDE_STYLE ( '', ( #31032 ) ) ;
#31032 = SURFACE_STYLE_FILL_AREA ( #31033 ) ;
#31033 = FILL_AREA_STYLE ( '', ( #31034 ) ) ;
#31034 = FILL_AREA_STYLE_COLOUR ( '', #30000 ) ;
#31035 = STYLED_ITEM ( 'NONE', ( #31036 ), #153 ) ;
#31036 = PRESENTATION_STYLE_ASSIGNMENT (( #31037 )) ;
#31037 = SURFACE_STYLE_USAGE ( .BOTH. , #31038 ) ;
#31038 = SURFACE_SIDE_STYLE ( '', ( #31039 ) ) ;
#31039 = SURFACE_STYLE_FILL_AREA ( #31040 ) ;
#31040 = FILL_AREA_STYLE ( '', ( #31041 ) ) ;
#31041 = FILL_AREA_STYLE_COLOUR ( '', #30000 ) ;
#31042 = STYLED_ITEM ( 'NONE', ( #31043 ), #200 ) ;
#31043 = PRESENTATION_STYLE_ASSIGNMENT (( #31044 )) ;
#31044 = SURFACE_STYLE_USAGE ( .BOTH. , #31045 ) ;
#31045 = SURFACE_SIDE_STYLE ( '', ( #31046 ) ) ;
#31046 = SURFACE_STYLE_FILL_AREA ( #31047 ) ;
#31047 = FILL_AREA_STYLE ( '', ( #31048 ) ) ;
#31048 = FILL_AREA_STYLE_COLOUR ( '', #30000 ) ;
#31049 = STYLED_ITEM ( 'NONE', ( #31050 ), #242 ) ;
#31050 = PRESENTATION_STYLE_ASSIGNMENT (( #31051 )) ;
#31051 = SURFACE_STYLE_USAGE ( .BOTH. , #31052 ) ;
#31052 = SURFACE_SIDE_STYLE ( '', ( #31053 ) ) ;
#31053 = SURFACE_STYLE_FILL_AREA ( #31054 ) ;
#31054 = FILL_AREA_STYLE ( '', ( #31055 ) ) ;
#31055 = FILL_AREA_STYLE_COLOUR ( '', #30000 ) ;
#31056 = STYLED_ITEM ( 'NONE', ( #31057 ), #282 ) ;
#31057 = PRESENTATION_STYLE_ASSIGNMENT (( #31058 )) ;
#31058 = SURFACE_STYLE_USAGE ( .BOTH. , #31059 ) ;
#31059 = SURFACE_SIDE_STYLE ( '', ( #31060 ) ) ;
#31060 = SURFACE_STYLE_FILL_AREA ( #31061 ) ;
#31061 = FILL_AREA_STYLE ( '', ( #31062 ) ) ;
#31062 = FILL_AREA_STYLE_COLOUR ( '', #30000 ) ;
#31063 = STYLED_ITEM ( 'NONE', ( #31064 ), #308 ) ;
#31064 = PRESENTATION_STYLE_ASSIGNMENT (( #31065 )) ;
#31065 = SURFACE_STYLE_USAGE ( .BOTH. , #31066 ) ;
#31066 = SURFACE_SIDE_STYLE ( '', ( #31067 ) ) ;
#31067 = SURFACE_STYLE_FILL_AREA ( #31068 ) ;
#31068 = FILL_AREA_STYLE ( '', ( #31069 ) ) ;
#31069 = FILL_AREA_STYLE_COLOUR ( '', #30000 ) ;
#31070 = STYLED_ITEM ( 'NONE', ( #31071 ), #333 ) ;
#31071 = PRESENTATION_STYLE_ASSIGNMENT (( #31072 )) ;
#31072 = SURFACE_STYLE_USAGE ( .BOTH. , #31073 ) ;
#31073 = SURFACE_SIDE_STYLE ( '', ( #31074 ) ) ;
#31074 = SURFACE_STYLE_FILL_AREA ( #31075 ) ;
#31075 = FILL_AREA_STYLE ( '', ( #31076 ) ) ;
#31076 = FILL_AREA_STYLE_COLOUR ( '', #30000 ) ;
#31077 = STYLED_ITEM ( 'NONE', ( #31078 ), #364 ) ;
#31078 = PRESENTATION_STYLE_ASSIGNMENT (( #31079 )) ;
#31079 = SURFACE_STYLE_USAGE ( .BOTH. , #31080 ) ;
#31080 = SURFACE_SIDE_STYLE ( '', ( #31081 ) ) ;
#31081 = SURFACE_STYLE_FILL_AREA ( #31082 ) ;
#31082 = FILL_AREA_STYLE ( '', ( #31083 ) ) ;
#31083 = FILL_AREA_STYLE_COLOUR ( '', #30000 ) ;
#31084 = STYLED_ITEM ( 'NONE', ( #31085 ), #389 ) ;
#31085 = PRESENTATION_STYLE_ASSIGNMENT (( #31086 )) ;
#31086 = SURFACE_STYLE_USAGE ( .BOTH. , #31087 ) ;
#31087 = SURFACE_SIDE_STYLE ( '', ( #31088 ) ) ;
#31088 = SURFACE_STYLE_FILL_AREA ( #31089 ) ;
#31089 = FILL_AREA_STYLE ( '', ( #31090 ) ) ;
#31090 = FILL_AREA_STYLE_COLOUR ( '', #30000 ) ;
#31091 = STYLED_ITEM ( 'NONE', ( #31092 ), #445 ) ;
#31092 = PRESENTATION_STYLE_ASSIGNMENT (( #31093 )) ;
#31093 = SURFACE_STYLE_USAGE ( .BOTH. , #31094 ) ;
#31094 = SURFACE_SIDE_STYLE ( '', ( #31095 ) ) ;
#31095 = SURFACE_STYLE_FILL_AREA ( #31096 ) ;
#31096 = FILL_AREA_STYLE ( '', ( #31097 ) ) ;
#31097 = FILL_AREA_STYLE_COLOUR ( '', #30000 ) ;
#31098 = STYLED_ITEM ( 'NONE', ( #31099 ), #463 ) ;
#31099 = PRESENTATION_STYLE_ASSIGNMENT (( #31100 )) ;
#31100 = SURFACE_STYLE_USAGE ( .BOTH. , #31101 ) ;
#31101 = SURFACE_SIDE_STYLE ( '', ( #31102 ) ) ;
#31102 = SURFACE_STYLE_FILL_AREA ( #31103 ) ;
#31103 = FILL_AREA_STYLE ( '', ( #31104 ) ) ;
#31104 = FILL_AREA_STYLE_COLOUR ( '', #30000 ) ;
#31105 = STYLED_ITEM ( 'NONE', ( #31106 ), #510 ) ;
#31106 = PRESENTATION_STYLE_ASSIGNMENT (( #31107 )) ;
#31107 = SURFACE_STYLE_USAGE ( .BOTH. , #31108 ) ;
#31108 = SURFACE_SIDE_STYLE ( '', ( #31109 ) ) ;
#31109 = SURFACE_STYLE_FILL_AREA ( #31110 ) ;
#31110 = FILL_AREA_STYLE ( '', ( #31111 ) ) ;
#31111 = FILL_AREA_STYLE_COLOUR ( '', #30000 ) ;
#31112 = STYLED_ITEM ( 'NONE', ( #31113 ), #559 ) ;
#31113 = PRESENTATION_STYLE_ASSIGNMENT (( #31114 )) ;
#31114 = SURFACE_STYLE_USAGE ( .BOTH. , #31115 ) ;
#31115 = SURFACE_SIDE_STYLE ( '', ( #31116 ) ) ;
#31116 = SURFACE_STYLE_FILL_AREA ( #31117 ) ;
#31117 = FILL_AREA_STYLE ( '', ( #31118 ) ) ;
#31118 = FILL_AREA_STYLE_COLOUR ( '', #30000 ) ;
#31119 = STYLED_ITEM ( 'NONE', ( #31120 ), #584 ) ;
#31120 = PRESENTATION_STYLE_ASSIGNMENT (( #31121 )) ;
#31121 = SURFACE_STYLE_USAGE ( .BOTH. , #31122 ) ;
#31122 = SURFACE_SIDE_STYLE ( '', ( #31123 ) ) ;
#31123 = SURFACE_STYLE_FILL_AREA ( #31124 ) ;
#31124 = FILL_AREA_STYLE ( '', ( #31125 ) ) ;
#31125 = FILL_AREA_STYLE_COLOUR ( '', #30000 ) ;
#31126 = STYLED_ITEM ( 'NONE', ( #31127 ), #644 ) ;
#31127 = PRESENTATION_STYLE_ASSIGNMENT (( #31128 )) ;
#31128 = SURFACE_STYLE_USAGE ( .BOTH. , #31129 ) ;
#31129 = SURFACE_SIDE_STYLE ( '', ( #31130 ) ) ;
#31130 = SURFACE_STYLE_FILL_AREA ( #31131 ) ;
#31131 = FILL_AREA_STYLE ( '', ( #31132 ) ) ;
#31132 = FILL_AREA_STYLE_COLOUR ( '', #30000 ) ;
#31133 = STYLED_ITEM ( 'NONE', ( #31134 ), #789 ) ;
#31134 = PRESENTATION_STYLE_ASSIGNMENT (( #31135 )) ;
#31135 = SURFACE_STYLE_USAGE ( .BOTH. , #31136 ) ;
#31136 = SURFACE_SIDE_STYLE ( '', ( #31137 ) ) ;
#31137 = SURFACE_STYLE_FILL_AREA ( #31138 ) ;
#31138 = FILL_AREA_STYLE ( '', ( #31139 ) ) ;
#31139 = FILL_AREA_STYLE_COLOUR ( '', #30000 ) ;
#31140 = STYLED_ITEM ( 'NONE', ( #31141 ), #824 ) ;
#31141 = PRESENTATION_STYLE_ASSIGNMENT (( #31142 )) ;
#31142 = SURFACE_STYLE_USAGE ( .BOTH. , #31143 ) ;
#31143 = SURFACE_SIDE_STYLE ( '', ( #31144 ) ) ;
#31144 = SURFACE_STYLE_FILL_AREA ( #31145 ) ;
#31145 = FILL_AREA_STYLE ( '', ( #31146 ) ) ;
#31146 = FILL_AREA_STYLE_COLOUR ( '', #30000 ) ;
#31147 = STYLED_ITEM ( 'NONE', ( #31148 ), #861 ) ;
#31148 = PRESENTATION_STYLE_ASSIGNMENT (( #31149 )) ;
#31149 = SURFACE_STYLE_USAGE ( .BOTH. , #31150 ) ;
#31150 = SURFACE_SIDE_STYLE ( '', ( #31151 ) ) ;
#31151 = SURFACE_STYLE_FILL_AREA ( #31152 ) ;
#31152 = FILL_AREA_STYLE ( '', ( #31153 ) ) ;
#31153 = FILL_AREA_STYLE_COLOUR ( '', #30000 ) ;
#31154 = STYLED_ITEM ( 'NONE', ( #31155 ), #893 ) ;
#31155 = PRESENTATION_STYLE_ASSIGNMENT (( #31156 )) ;
#31156 = SURFACE_STYLE_USAGE ( .BOTH. , #31157 ) ;
#31157 = SURFACE_SIDE_STYLE ( '', ( #31158 ) ) ;
#31158 = SURFACE_STYLE_FILL_AREA ( #31159 ) ;
#31159 = FILL_AREA_STYLE ( '', ( #31160 ) ) ;
#31160 = FILL_AREA_STYLE_COLOUR ( '', #30000 ) ;
#31161 = STYLED_ITEM ( 'NONE', ( #31162 ), #1507 ) ;
#31162 = PRESENTATION_STYLE_ASSIGNMENT (( #31163 )) ;
#31163 = SURFACE_STYLE_USAGE ( .BOTH. , #31164 ) ;
#31164 = SURFACE_SIDE_STYLE ( '', ( #31165 ) ) ;
#31165 = SURFACE_STYLE_FILL_AREA ( #31166 ) ;
#31166 = FILL_AREA_STYLE ( '', ( #31167 ) ) ;
#31167 = FILL_AREA_STYLE_COLOUR ( '', #30000 ) ;
ENDSEC;
END-ISO-10303-21;
